<?xml version="1.0" encoding="UTF-8" standalone="no"?>
<!-- Created with Inkscape (http://www.inkscape.org/) -->

<svg
   xmlns:dc="http://purl.org/dc/elements/1.1/"
   xmlns:cc="http://creativecommons.org/ns#"
   xmlns:rdf="http://www.w3.org/1999/02/22-rdf-syntax-ns#"
   xmlns:svg="http://www.w3.org/2000/svg"
   xmlns="http://www.w3.org/2000/svg"
   xmlns:sodipodi="http://sodipodi.sourceforge.net/DTD/sodipodi-0.dtd"
   xmlns:inkscape="http://www.inkscape.org/namespaces/inkscape"
   width="157.47977mm"
   height="22.722059mm"
   viewBox="0 0 157.47977 22.722059"
   version="1.1"
   id="svg8"
   inkscape:version="0.92.5 (2060ec1f9f, 2020-04-08)"
   sodipodi:docname="banner.svg">
  <defs
     id="defs2" />
  <sodipodi:namedview
     id="base"
     pagecolor="#ffffff"
     bordercolor="#666666"
     borderopacity="1.0"
     inkscape:pageopacity="0.0"
     inkscape:pageshadow="2"
     inkscape:zoom="1.4"
     inkscape:cx="302.46867"
     inkscape:cy="101.83344"
     inkscape:document-units="mm"
     inkscape:current-layer="layer1"
     showgrid="false"
     fit-margin-top="0"
     fit-margin-left="0"
     fit-margin-right="0"
     fit-margin-bottom="0"
     inkscape:window-width="1920"
     inkscape:window-height="1051"
     inkscape:window-x="1920"
     inkscape:window-y="0"
     inkscape:window-maximized="1" />
  <metadata
     id="metadata5">
    <rdf:RDF>
      <cc:Work
         rdf:about="">
        <dc:format>image/svg+xml</dc:format>
        <dc:type
           rdf:resource="http://purl.org/dc/dcmitype/StillImage" />
        <dc:title></dc:title>
      </cc:Work>
    </rdf:RDF>
  </metadata>
  <g
     inkscape:label="Layer 1"
     inkscape:groupmode="layer"
     id="layer1"
     transform="translate(-8.4880775,-9.0502149)">
    <g
       id="g78"
       transform="matrix(0.00570126,0,0,-0.00570126,144.53111,31.664848)"
       style="fill:#000000;stroke:none">
      <path
         id="path12"
         d="m 1980,3830 c -8,-4 -35,-17 -60,-28 -90,-40 -166,-137 -181,-232 -6,-38 -2,-55 21,-106 16,-33 36,-66 44,-73 17,-14 22,-41 7,-41 -5,0 -15,10 -24,23 -8,13 -42,37 -75,55 -65,35 -106,39 -218,23 -57,-9 -64,-13 -120,-71 -69,-72 -116,-176 -112,-247 2,-35 -3,-47 -36,-83 -30,-33 -40,-39 -47,-29 -5,8 -9,17 -9,20 0,4 -42,49 -93,102 -118,120 -266,215 -416,268 -63,22 -75,23 -66,9 3,-5 15,-10 27,-10 11,0 39,-20 62,-44 22,-24 70,-59 106,-76 36,-18 79,-43 97,-56 17,-13 36,-24 42,-24 12,0 120,-98 198,-180 29,-30 67,-83 84,-118 18,-35 36,-65 41,-68 13,-8 9,-27 -13,-64 -20,-32 -22,-33 -35,-15 -8,10 -14,33 -14,50 0,21 -9,40 -25,55 -13,12 -34,46 -45,74 -19,46 -28,54 -83,81 -68,33 -147,102 -147,128 0,9 -5,17 -10,17 -20,0 -22,-30 -5,-56 9,-14 15,-29 13,-34 -5,-13 -166,99 -189,132 -28,39 -7,36 58,-9 29,-20 56,-34 59,-30 10,9 -77,92 -121,116 -22,11 -48,21 -58,21 -10,0 -32,14 -49,31 -20,19 -33,26 -38,19 -4,-7 -15,-8 -30,-2 -16,6 -20,11 -11,16 9,6 8,11 -6,22 -16,12 -16,15 -3,24 11,7 16,5 18,-5 6,-25 32,-17 32,9 0,22 -7,26 -71,40 -38,9 -74,14 -79,11 -5,-3 -11,-1 -15,5 -11,17 -78,11 -126,-13 -49,-23 -111,-80 -122,-111 -5,-12 -1,-26 9,-38 17,-17 16,-20 -12,-49 -16,-17 -46,-42 -67,-55 -32,-21 -37,-30 -37,-61 0,-72 31,-143 82,-187 47,-40 48,-42 48,-101 0,-56 2,-61 30,-80 27,-18 30,-25 30,-73 0,-29 7,-66 15,-81 26,-51 109,-116 172,-136 32,-9 63,-23 68,-29 6,-7 39,-32 75,-56 51,-35 75,-45 119,-48 63,-5 207,12 270,34 52,17 63,12 33,-15 -12,-10 -22,-24 -22,-31 0,-7 -9,-22 -19,-34 -11,-11 -43,-48 -73,-81 -91,-102 -101,-121 -95,-169 5,-32 16,-53 47,-83 22,-22 40,-50 40,-62 0,-25 15,-53 53,-94 29,-31 50,-35 116,-21 19,4 57,1 89,-7 52,-12 55,-12 73,9 l 18,22 37,-25 c 20,-14 41,-25 45,-25 15,0 -2,-29 -20,-35 -17,-5 -85,-129 -96,-177 -4,-14 -2,-58 4,-97 13,-81 37,-112 123,-153 33,-16 52,-32 63,-58 16,-35 50,-67 76,-70 38,-6 79,2 94,16 18,19 30,13 21,-11 -11,-29 -106,-49 -121,-25 -4,6 -11,7 -17,4 -12,-8 -78,54 -78,73 0,17 -27,46 -57,62 -46,24 -133,4 -163,-38 -8,-12 -20,-21 -28,-21 -7,0 -26,-28 -42,-63 -31,-69 -54,-94 -96,-106 l -29,-8 59,-37 c 110,-71 135,-78 260,-74 l 111,3 20,-40 c 14,-28 20,-35 23,-23 2,10 -3,32 -12,49 -14,28 -14,30 2,27 9,-2 26,-20 37,-41 11,-20 23,-37 28,-37 13,0 8,35 -9,58 -9,13 -13,26 -9,30 8,8 51,-42 68,-78 11,-25 11,-25 15,9 3,27 -2,39 -20,52 -21,16 -21,18 -5,25 12,4 23,-1 36,-17 10,-13 28,-35 41,-49 l 21,-25 -6,30 c -4,17 -14,38 -22,48 -9,9 -12,17 -6,17 15,0 61,-48 68,-71 9,-28 25,-23 25,6 0,15 -11,36 -27,51 -14,13 -24,27 -20,30 11,11 45,-16 69,-53 l 23,-38 3,28 c 5,40 -3,56 -33,67 -28,11 -34,30 -9,30 9,0 32,-16 51,-35 19,-19 37,-35 39,-35 14,0 -12,59 -35,77 -21,19 -23,23 -8,23 19,0 61,-36 69,-61 9,-24 21,-2 14,26 -4,15 -20,34 -36,43 -33,19 -37,27 -16,35 9,4 30,-9 51,-31 l 36,-37 -3,30 c -2,23 -11,34 -36,46 -28,13 -31,17 -19,27 21,18 41,6 74,-40 18,-26 29,-36 31,-26 6,30 -18,69 -48,79 -16,6 -30,17 -30,25 0,12 4,13 23,3 33,-17 67,-51 67,-66 0,-18 16,-17 24,2 6,17 -56,85 -78,85 -8,0 -16,7 -20,15 -11,28 33,16 74,-21 27,-25 40,-31 40,-21 0,20 -48,77 -65,77 -15,0 -40,28 -32,36 3,4 26,-5 51,-19 26,-14 46,-22 46,-17 0,16 -32,41 -61,47 -16,3 -29,12 -29,19 0,18 -1,18 61,-10 29,-14 57,-22 62,-19 13,8 -14,27 -69,50 -24,10 -44,24 -44,31 0,16 3,15 47,-7 48,-24 108,-38 99,-22 -4,6 -12,11 -17,11 -20,0 -138,64 -133,72 3,4 15,1 27,-6 35,-23 141,-40 163,-27 15,8 8,10 -37,11 -42,0 -70,7 -110,28 -29,15 -54,33 -57,40 -2,6 18,1 45,-13 65,-34 139,-42 185,-21 l 35,17 32,-32 c 23,-23 29,-35 21,-43 -8,-8 0,-20 27,-43 33,-29 35,-32 10,-21 -28,12 -44,7 -33,-11 11,-18 109,-78 139,-85 43,-10 33,17 -15,39 -23,11 -44,26 -46,32 -3,9 4,8 25,-2 35,-18 63,-19 63,-2 0,7 -19,17 -42,23 -23,5 -43,14 -45,21 -3,8 6,9 33,3 64,-15 58,0 -13,34 -68,33 -143,98 -143,124 0,8 15,0 35,-19 44,-42 114,-89 132,-89 23,0 14,9 -24,25 -21,9 -61,39 -90,67 -50,49 -53,51 -71,35 -29,-27 -34,-20 -14,21 10,20 26,62 36,93 18,60 46,98 74,100 32,2 67,-3 75,-10 13,-13 110,24 125,48 24,35 17,93 -13,115 -19,14 -24,23 -19,40 4,11 8,32 9,46 1,14 3,31 3,37 1,7 16,26 32,42 24,23 45,31 102,39 40,6 83,19 97,30 38,28 71,81 66,106 -2,11 1,34 8,50 l 13,29 17,-26 c 9,-14 21,-45 26,-68 12,-52 -14,-128 -50,-146 -33,-17 -86,-16 -117,3 -25,14 -31,14 -72,-4 -59,-25 -108,-91 -92,-125 9,-18 11,-19 11,-4 1,28 38,94 56,101 11,4 15,2 11,-6 -28,-69 -29,-87 -8,-140 24,-59 25,-66 23,-125 -2,-67 -53,-101 -66,-43 -9,43 -27,37 -23,-7 l 3,-38 -40,4 c -22,1 -48,7 -57,12 -22,12 -80,11 -113,-1 -27,-10 -65,-82 -65,-123 0,-40 135,-143 177,-135 10,2 -8,19 -50,46 -66,42 -82,62 -52,62 8,0 15,-4 15,-10 0,-14 58,-42 65,-31 3,6 -11,22 -30,37 -42,31 -40,42 4,20 18,-10 32,-12 36,-6 3,5 -5,15 -19,22 -35,15 -34,37 2,30 l 27,-5 -32,27 c -18,15 -33,32 -33,37 0,17 39,9 59,-12 21,-22 118,-48 183,-49 35,0 57,-17 56,-44 0,-4 16,-28 36,-52 26,-31 45,-44 64,-45 155,-5 153,-6 178,26 22,27 33,75 18,75 -3,0 -15,-11 -25,-24 -23,-29 -81,-50 -115,-42 -21,6 -24,12 -24,48 0,23 11,69 24,102 22,54 23,67 14,118 -10,59 -59,131 -97,143 -21,6 -33,46 -20,67 6,9 13,7 31,-9 37,-35 74,-45 121,-32 149,40 226,168 165,274 -13,22 -33,44 -46,50 -30,13 -23,27 19,37 19,5 46,23 62,41 22,25 27,41 27,83 v 52 l 40,7 c 53,9 87,62 85,131 l -2,47 126,-6 c 103,-5 144,-11 226,-37 55,-18 104,-36 109,-41 21,-20 -4,-18 -65,5 -58,22 -120,35 -264,56 -34,5 -56,3 -68,-5 -15,-11 -11,-13 29,-19 26,-3 61,-6 78,-6 44,-1 213,-43 269,-68 38,-17 47,-26 47,-46 0,-20 -5,-26 -20,-26 -26,0 -80,27 -80,40 0,13 4,13 45,-4 19,-8 35,-11 35,-6 0,15 -65,39 -173,66 -98,24 -152,29 -194,18 -47,-13 -21,-24 55,-24 71,0 185,-19 199,-34 14,-14 -9,-17 -63,-7 -54,10 -75,9 -61,-5 3,-3 43,-14 89,-24 92,-21 153,-44 164,-62 5,-8 2,-9 -12,-4 -76,30 -282,67 -326,58 -43,-8 -12,-20 55,-21 77,-1 251,-40 270,-61 14,-14 4,-13 -148,20 -72,15 -113,19 -150,14 -47,-7 -48,-8 -20,-15 17,-4 76,-12 132,-19 110,-12 186,-31 217,-55 30,-23 15,-26 -39,-9 -79,25 -186,44 -240,43 l -50,-1 45,-9 c 25,-5 72,-13 105,-19 68,-12 185,-48 199,-61 15,-14 -25,-23 -45,-11 -27,17 -196,52 -253,52 -57,0 -57,-8 0,-15 124,-16 304,-67 304,-86 0,-13 -24,-11 -67,5 -57,21 -176,46 -217,46 -61,0 -40,-15 42,-29 71,-13 130,-26 206,-49 32,-9 48,-32 22,-32 -8,0 -39,9 -68,19 -46,17 -209,51 -245,51 -7,0 -13,-4 -13,-10 0,-5 15,-10 33,-10 17,0 48,-5 67,-10 19,-6 49,-13 65,-16 76,-13 165,-44 165,-56 0,-12 -15,-10 -93,17 -91,30 -239,57 -251,45 -5,-5 13,-12 43,-16 48,-6 70,-18 58,-31 -3,-3 -21,0 -39,5 -48,16 -93,19 -96,7 -2,-5 7,-13 20,-17 13,-4 1,-5 -27,-2 -57,5 -71,-1 -80,-36 -5,-22 -1,-27 37,-42 24,-10 60,-18 80,-18 20,0 40,-5 43,-10 3,-6 1,-10 -6,-10 -7,0 -20,-7 -30,-16 -18,-16 -38,-14 -139,12 -41,11 -7,-18 38,-33 l 37,-11 -45,5 c -25,4 -55,12 -67,20 -12,8 -24,10 -27,5 -3,-6 9,-19 27,-31 l 32,-21 -32,6 c -26,5 -33,3 -33,-10 0,-11 9,-16 28,-17 l 27,-1 -27,-10 c -38,-13 -35,-28 5,-26 17,1 44,-2 60,-6 35,-10 36,7 0,23 -30,14 -21,28 22,33 17,1 52,15 78,30 57,33 116,45 146,29 34,-19 25,-27 -34,-27 -36,-1 -62,-7 -73,-18 -10,-9 -24,-16 -30,-16 -17,0 -15,-30 3,-36 15,-6 55,-68 55,-86 0,-6 -7,-5 -16,3 -15,12 -16,11 -10,-8 7,-23 7,-23 -104,-22 -84,1 -116,-2 -126,-13 -13,-12 -2,-14 77,-10 59,3 94,1 102,-7 8,-8 -6,-11 -53,-12 -88,-1 -126,-17 -45,-19 43,-1 54,-4 40,-10 -11,-5 -32,-9 -47,-9 -16,-1 -28,-5 -28,-11 0,-6 28,-10 64,-10 36,0 68,-4 71,-10 4,-6 -20,-10 -64,-10 -38,0 -73,-4 -76,-10 -4,-6 20,-10 64,-10 38,0 73,-5 76,-10 4,-7 -19,-10 -69,-8 -50,2 -79,-1 -87,-9 -10,-11 0,-13 54,-13 37,0 67,-3 67,-7 0,-5 -25,-8 -55,-8 -29,0 -59,-5 -65,-11 -7,-7 8,-11 52,-11 110,0 138,-3 138,-13 0,-6 -31,-7 -80,-3 -54,4 -80,2 -80,-5 0,-6 6,-12 13,-15 8,-3 6,-10 -8,-20 -19,-15 -16,-16 50,-17 39,-1 87,-1 108,0 21,0 37,-4 37,-11 0,-6 -9,-9 -20,-6 -13,3 -20,0 -20,-10 0,-11 -5,-13 -17,-8 -33,14 -110,17 -129,6 -15,-8 -9,-11 36,-11 88,-2 108,-18 23,-19 -42,-1 -73,-5 -73,-11 0,-5 22,-10 49,-10 28,0 53,-5 56,-10 4,-6 -10,-10 -34,-10 -21,0 -46,-3 -55,-6 -31,-12 -15,-19 34,-16 33,3 50,0 50,-7 0,-7 -6,-11 -12,-10 -7,1 -24,0 -38,-1 -21,-2 -19,-4 13,-12 47,-13 49,-31 3,-23 -36,7 -82,-2 -71,-13 8,-8 13,-9 55,-11 17,0 30,-6 30,-11 0,-7 -18,-8 -50,-4 -42,5 -51,4 -56,-11 -9,-24 31,-54 72,-55 23,0 34,-6 42,-25 16,-35 16,-35 -15,-35 -14,0 -55,16 -90,35 -35,19 -63,32 -63,28 0,-4 15,-22 33,-41 25,-27 27,-32 10,-23 -32,16 -29,-3 4,-29 16,-13 35,-19 48,-16 11,3 27,1 35,-4 11,-7 7,-10 -17,-10 -18,0 -33,-5 -33,-10 0,-7 -6,-7 -19,0 -26,14 -31,13 -25,-4 3,-8 24,-22 47,-31 31,-13 38,-19 26,-26 -12,-8 -12,-10 1,-19 20,-13 57,-13 65,0 10,17 25,11 25,-10 0,-16 -7,-20 -36,-20 -19,0 -44,5 -55,10 -12,7 -19,7 -19,1 0,-16 19,-23 66,-24 28,0 41,-4 35,-10 -13,-13 -74,-11 -102,3 l -24,13 24,-26 c 18,-20 30,-25 52,-20 34,7 39,-11 8,-27 -20,-11 -76,-4 -122,15 -13,6 -16,4 -11,-10 5,-12 -4,-9 -34,12 -44,30 -59,56 -16,28 38,-25 36,-15 -7,35 -22,25 -37,37 -33,27 10,-27 -21,-21 -59,13 -19,16 -40,30 -46,30 -6,0 -8,-11 -4,-30 6,-34 -12,-41 -32,-13 -10,14 -18,15 -46,6 -22,-7 -29,-12 -19,-16 8,-3 24,-8 35,-12 l 20,-7 -20,-8 c -13,-5 -29,-1 -47,11 -14,11 -36,19 -47,19 -19,0 -18,3 11,29 18,16 30,33 26,37 -5,4 -16,0 -25,-8 -19,-17 -43,-21 -103,-19 -35,1 -32,16 4,23 11,1 21,9 24,17 3,8 0,11 -6,7 -5,-3 -31,-3 -58,1 -39,5 -44,8 -26,14 33,12 27,27 -14,35 l -35,6 20,20 c 27,25 26,31 -3,26 -36,-7 -51,5 -32,25 9,8 16,18 16,21 0,9 -58,7 -64,-2 -6,-10 43,-132 62,-155 12,-13 13,-20 4,-29 -21,-21 -12,-52 21,-76 17,-13 41,-30 52,-38 19,-15 19,-15 -5,-8 -14,3 -40,15 -58,26 -18,11 -36,17 -40,13 -10,-10 79,-83 108,-88 22,-4 21,-4 -5,-6 -17,0 -48,8 -70,19 -53,27 -63,25 -35,-6 24,-25 100,-64 126,-64 8,0 14,-4 14,-9 0,-5 -25,-13 -55,-16 -60,-8 -107,5 -138,37 -19,19 -37,24 -37,9 0,-21 82,-69 160,-95 33,-11 41,-16 28,-21 -19,-8 -161,40 -166,55 -2,6 -12,15 -23,21 -15,7 -23,6 -35,-6 -8,-8 -11,-15 -4,-15 6,0 27,-11 48,-25 20,-13 52,-27 70,-31 17,-4 29,-11 26,-16 -11,-18 -134,23 -134,44 0,5 -7,8 -16,8 -50,0 61,-83 125,-94 44,-7 48,-26 6,-26 -24,0 -125,50 -157,78 -31,27 -22,-11 10,-39 27,-25 56,-37 140,-59 39,-10 59,-30 30,-30 -33,0 -123,31 -182,63 -37,19 -69,31 -72,25 -3,-5 -4,-10 -3,-12 67,-45 148,-85 172,-86 30,0 18,-20 -13,-20 -16,0 -30,-4 -30,-10 0,-5 14,-10 31,-10 20,0 29,-4 27,-12 -7,-20 -44,-21 -62,-3 -10,10 -24,14 -36,10 -27,-9 -17,-22 23,-30 17,-4 37,-10 42,-14 6,-3 21,-7 35,-7 34,-2 34,-2 20,-19 -9,-10 -17,-12 -30,-5 -9,5 -20,6 -24,3 -3,-3 -6,-1 -6,6 0,8 -7,11 -15,7 -25,-9 -131,29 -172,63 -22,18 -49,31 -65,31 -38,0 -35,-17 5,-33 36,-16 74,-54 63,-64 -4,-4 -20,1 -35,10 -16,9 -37,17 -48,17 -13,-1 -6,-11 27,-40 47,-41 44,-51 -8,-24 -18,8 -42,14 -54,12 -21,-4 -19,-6 12,-19 38,-17 67,-46 56,-56 -3,-3 -14,1 -24,10 -20,18 -88,24 -77,7 3,-5 13,-10 21,-10 8,0 29,-14 47,-31 30,-30 28,-31 -18,-13 -18,7 -18,6 3,-20 39,-50 25,-64 -17,-16 -21,25 -36,50 -34,57 6,15 -2,16 -44,4 -25,-7 -42,-5 -77,12 -25,11 -46,26 -46,33 0,16 -67,74 -85,74 -18,0 -19,12 -2,29 10,10 7,16 -13,31 -14,11 -35,20 -48,20 -19,0 -21,4 -16,24 4,18 0,28 -17,40 -26,18 -84,22 -94,6 -3,-5 0,-10 7,-10 7,0 27,-11 43,-25 23,-19 26,-24 13,-25 -36,0 -16,-26 40,-50 50,-22 54,-25 30,-28 -33,-4 -61,-32 -32,-32 35,0 144,-47 144,-61 0,-5 -6,-6 -14,-3 -16,6 -28,-8 -18,-22 4,-5 34,-18 67,-29 64,-21 125,-67 125,-94 0,-32 39,-79 83,-100 39,-19 173,-51 213,-51 8,0 14,8 14,18 0,9 8,35 19,57 10,22 27,67 37,100 21,73 89,166 171,234 110,92 153,156 178,270 15,63 19,71 40,71 13,0 27,-5 31,-11 9,-16 97,-3 162,23 l 53,22 53,-27 c 67,-34 79,-34 138,5 60,37 68,57 68,154 v 74 h 28 c 15,0 38,7 51,16 20,14 23,23 18,61 -4,35 -2,41 8,33 18,-15 69,9 120,56 l 40,36 -22,15 c -13,9 -23,24 -23,34 0,15 5,16 29,9 62,-18 159,59 148,118 -2,15 -12,61 -22,102 -38,171 -36,247 11,455 23,101 29,357 9,396 -9,16 -15,30 -14,31 0,2 -3,17 -7,33 -10,45 -34,88 -57,107 -21,16 -21,17 21,33 71,29 82,83 32,169 -30,53 -77,86 -122,86 -20,0 -20,2 10,33 83,85 88,232 14,362 -34,59 -38,74 -30,97 14,40 22,41 65,12 31,-21 45,-25 77,-19 58,9 106,34 106,56 0,10 5,21 10,24 6,3 10,34 10,69 0,54 -3,66 -25,86 -14,13 -25,29 -25,36 0,6 -7,14 -15,18 -8,3 -15,12 -15,20 0,23 -27,33 -107,41 -80,8 -185,-12 -232,-44 -14,-10 -39,-26 -54,-35 -15,-10 -31,-24 -34,-31 -3,-8 -20,-31 -38,-50 -18,-20 -49,-60 -70,-90 -34,-50 -37,-61 -41,-136 -2,-45 -6,-84 -8,-86 -2,-3 -14,1 -26,7 -28,15 -92,4 -125,-22 l -26,-20 -23,21 c -12,11 -29,21 -37,21 -22,1 -87,63 -94,91 -8,32 -56,62 -88,54 -15,-4 -28,-1 -37,10 -11,13 -10,19 8,36 26,23 27,47 7,96 -8,19 -15,49 -15,66 0,32 -47,84 -101,112 -38,20 -97,10 -154,-26 l -46,-29 -9,26 c -6,14 -10,32 -10,40 0,8 -11,19 -24,24 -13,5 -27,13 -30,19 -4,6 -28,20 -54,32 -50,23 -203,36 -232,19 z m 230,-72 c 0,-4 9,-10 20,-13 11,-4 28,-21 37,-38 8,-18 19,-34 24,-37 10,-7 0,-50 -12,-50 -4,0 -11,17 -15,38 -8,44 -21,63 -43,61 -9,-1 -34,6 -56,16 -26,12 -63,18 -107,18 -38,0 -65,4 -62,9 7,10 214,7 214,-4 z m -298,-50 c -12,-12 -25,-18 -29,-14 -4,4 3,16 17,26 32,24 40,16 12,-12 z m 138,12 c 0,-5 -12,-13 -27,-16 -39,-9 -84,-33 -110,-57 -32,-28 -42,-13 -12,19 40,43 149,83 149,54 z m 50,0 c 0,-5 -4,-10 -9,-10 -6,0 -13,5 -16,10 -3,6 1,10 9,10 9,0 16,-4 16,-10 z m 133,-72 c 71,-90 71,-180 0,-245 -56,-52 -153,-79 -153,-43 0,5 11,10 24,10 32,0 88,24 108,47 9,10 24,41 33,70 22,67 8,113 -48,166 -34,31 -37,37 -19,37 12,0 34,-17 55,-42 z m -369,5 c -3,-16 -10,-42 -15,-58 -12,-39 -9,-115 5,-137 6,-9 7,-21 3,-25 -5,-4 -12,-1 -17,6 -12,20 -23,99 -15,111 3,5 1,10 -4,10 -6,0 -11,-20 -11,-46 0,-49 -14,-52 -25,-5 -6,29 -2,41 49,139 21,39 39,42 30,5 z m 275,11 c 91,-45 110,-178 35,-244 -28,-24 -43,-30 -77,-29 l -42,1 34,8 c 56,13 86,42 89,86 8,89 -41,154 -115,154 -44,0 -52,-5 -79,-45 -22,-32 -25,-88 -5,-108 12,-12 15,-38 4,-36 -20,3 -24,-2 -13,-16 15,-18 7,-30 -14,-22 -44,17 -50,123 -12,195 34,66 124,91 195,56 z m 346,-4 c 3,-6 16,-8 29,-4 18,4 30,-3 55,-31 39,-45 33,-60 -8,-21 -37,35 -113,46 -159,22 -30,-16 -42,-13 -42,10 0,24 112,45 125,24 z m 1058,-11 c 21,-5 35,-13 33,-18 -3,-4 8,-20 25,-35 32,-31 37,-62 14,-105 -15,-30 -70,-57 -80,-40 -4,5 1,12 9,15 29,11 19,59 -19,93 -30,26 -44,31 -86,31 -139,0 -248,-147 -276,-372 -4,-34 -10,-48 -21,-48 -12,0 -14,10 -8,61 15,148 59,243 161,344 27,28 66,58 85,68 40,19 107,22 163,6 z m -1206,-61 c 6,-29 9,-69 6,-88 -7,-52 -42,-114 -77,-135 -109,-66 -166,-86 -166,-60 0,9 9,15 26,15 31,0 57,13 111,57 59,49 81,117 63,196 -6,28 -5,46 2,54 18,22 23,15 35,-39 z m -205,-10 c 32,-37 38,-64 22,-103 l -13,-30 -1,40 c 0,38 -19,79 -44,98 -6,4 -28,5 -48,2 -40,-6 -50,7 -20,24 27,17 75,2 104,-31 z m 388,21 25,-20 -40,7 c -22,4 -41,8 -43,9 -7,6 -77,-18 -84,-29 -4,-6 -8,-6 -8,-1 1,14 23,41 40,48 33,12 86,6 110,-14 z m 1150,1 c 0,-5 -4,-10 -10,-10 -5,0 -10,5 -10,10 0,6 5,10 10,10 6,0 10,-4 10,-10 z m -1138,-54 c 9,-12 17,-29 18,-40 0,-16 -3,-16 -26,7 -35,35 -86,45 -120,22 -29,-19 -43,-13 -24,10 30,36 122,37 152,1 z m 93,-16 c 7,-40 -12,-101 -35,-115 -14,-9 -13,18 1,32 7,7 11,37 11,67 0,65 13,74 23,16 z m 1075,30 c 0,-5 -12,-10 -26,-10 -14,0 -23,4 -19,10 3,6 15,10 26,10 10,0 19,-4 19,-10 z m -1595,-40 c 7,-24 7,-24 -9,-5 -8,11 -16,27 -16,35 0,20 16,1 25,-30 z m -215,-5 c 0,-14 -2,-25 -4,-25 -2,0 -6,11 -8,25 -3,14 -1,25 3,25 5,0 9,-11 9,-25 z m 611,-29 c 13,-25 20,-48 16,-52 -9,-9 -37,15 -37,32 0,8 -12,20 -27,26 -38,16 -39,18 -23,28 29,19 47,10 71,-34 z m 1189,34 c 0,-5 -10,-10 -22,-10 -19,0 -20,2 -8,10 19,13 30,13 30,0 z m -190,-20 c 0,-5 -4,-10 -10,-10 -5,0 -10,5 -10,10 0,6 5,10 10,10 6,0 10,-4 10,-10 z m -1053,-34 c 28,-24 27,-50 -2,-26 -19,16 -20,3 0,-16 8,-9 15,-23 15,-32 0,-13 -8,-9 -28,14 -15,17 -35,34 -45,38 -14,5 -16,9 -7,26 14,26 33,25 67,-4 z m 1213,4 c 0,-5 -4,-10 -10,-10 -5,0 -10,5 -10,10 0,6 5,10 10,10 6,0 10,-4 10,-10 z m -310,-10 c 0,-5 -5,-10 -11,-10 -5,0 -7,5 -4,10 3,6 8,10 11,10 2,0 4,-4 4,-10 z m -795,-9 c 3,-5 1,-12 -5,-16 -5,-3 -10,1 -10,9 0,18 6,21 15,7 z m -640,-41 c 21,-41 19,-51 -5,-15 -11,17 -20,33 -20,38 0,15 10,6 25,-23 z m 1705,26 c 0,-3 -4,-8 -10,-11 -5,-3 -10,-1 -10,4 0,6 5,11 10,11 6,0 10,-2 10,-4 z m -2070,-19 c 0,-9 21,-13 76,-14 69,-2 79,-4 106,-30 16,-15 37,-40 46,-56 9,-15 24,-30 34,-33 10,-3 18,-14 18,-26 0,-42 31,-86 71,-102 22,-9 48,-16 59,-16 11,0 20,-4 20,-10 0,-5 -20,-10 -44,-10 -59,0 -107,33 -126,88 -18,52 -33,55 -24,5 6,-37 57,-103 78,-103 6,0 20,-8 31,-16 19,-15 19,-15 -10,-9 l -30,7 25,-21 25,-20 -39,11 c -50,16 -108,72 -138,134 -15,32 -24,43 -26,31 -7,-34 19,-84 71,-135 46,-46 60,-53 103,-58 46,-5 51,-4 87,31 21,22 37,31 37,23 0,-22 -32,-51 -79,-73 l -43,-19 -55,29 c -60,31 -104,83 -124,143 -6,20 -20,49 -31,64 -41,58 -169,67 -241,16 -39,-28 -46,-14 -10,19 46,43 123,67 194,60 76,-7 82,16 8,33 -72,17 -151,-6 -210,-62 -16,-15 -31,-28 -34,-28 -24,0 42,83 84,105 14,7 37,23 50,34 28,24 41,27 41,8 z m 847,-2 c 3,-9 3,-18 0,-21 -7,-8 -47,15 -47,26 0,16 40,11 47,-5 z m 993,-5 c 0,-5 -5,-10 -11,-10 -5,0 -7,5 -4,10 3,6 8,10 11,10 2,0 4,-4 4,-10 z M 440,3395 c 0,-11 -12,-15 -45,-15 -25,0 -70,-9 -100,-19 -63,-22 -74,-12 -17,15 67,32 162,43 162,19 z m 2178,-15 c 17,-11 32,-27 32,-35 0,-26 -24,-17 -53,20 -32,40 -26,44 21,15 z m -108,0 c 0,-5 -2,-10 -4,-10 -3,0 -8,5 -11,10 -3,6 -1,10 4,10 6,0 11,-4 11,-10 z m -145,-10 c -3,-5 -11,-10 -16,-10 -6,0 -7,5 -4,10 3,6 11,10 16,10 6,0 7,-4 4,-10 z m 358,-15 c 15,-13 27,-26 27,-28 0,-2 -16,-3 -37,-3 -34,2 -49,16 -52,49 -2,16 35,5 62,-18 z m -717,-18 c 23,9 16,-25 -11,-52 -35,-36 -91,-31 -133,12 -21,20 -5,29 16,10 25,-23 98,-23 106,-1 4,9 1,23 -5,30 -6,7 -7,19 -2,26 6,9 9,7 11,-9 2,-14 8,-20 18,-16 z m 421,16 c -9,-9 -19,-14 -23,-11 -10,10 6,28 24,28 15,0 15,-1 -1,-17 z m 113,7 c 0,-5 -4,-10 -10,-10 -5,0 -10,5 -10,10 0,6 5,10 10,10 6,0 10,-4 10,-10 z m 770,1 c 0,-6 -4,-13 -10,-16 -5,-3 -10,1 -10,9 0,9 5,16 10,16 6,0 10,-4 10,-9 z m -1000,-8 c 0,-15 -115,-83 -119,-71 -2,7 1,14 6,15 6,2 30,17 54,33 46,30 59,35 59,23 z m 180,0 c -1,-5 -12,-21 -25,-38 -25,-30 -25,-30 -25,-6 0,13 8,30 18,37 19,15 32,18 32,7 z m -422,-31 c 2,-12 -1,-22 -7,-22 -6,0 -8,-7 -4,-16 8,-20 -32,-61 -68,-69 -16,-4 -45,-1 -65,5 -45,15 -55,6 -15,-14 42,-22 79,-20 129,9 24,14 42,19 40,13 -7,-20 -53,-49 -94,-58 -33,-8 -45,-5 -82,16 -28,16 -42,31 -38,40 3,7 1,16 -4,19 -6,4 -10,11 -10,17 0,6 11,3 25,-6 31,-20 94,-21 122,-1 13,9 28,34 34,56 13,42 32,47 37,11 z m -1689,-8 c 2,-2 2,-6 -1,-9 -9,-9 -58,6 -58,17 0,9 49,3 59,-8 z m 1996,5 c 12,-19 -5,-23 -22,-6 -16,16 -16,17 -1,17 9,0 20,-5 23,-11 z m 135,5 c 0,-12 -34,-64 -42,-64 -14,0 -8,30 10,49 17,19 32,26 32,15 z m 900,-2 c 0,-4 -9,-13 -19,-19 -11,-7 -29,-38 -41,-69 -21,-57 -21,-59 -4,-128 17,-72 32,-103 68,-143 30,-35 10,-40 -22,-5 -45,48 -92,152 -92,204 0,50 39,141 67,157 21,12 43,14 43,3 z M 311,3300 c 26,-36 159,-29 144,7 -6,16 -4,16 62,-3 46,-13 57,-14 64,-3 10,17 10,16 47,-56 17,-33 44,-71 61,-85 22,-17 27,-27 20,-36 -8,-10 -29,-5 -92,21 -196,79 -368,107 -312,51 9,-9 22,-16 29,-16 7,0 31,-9 54,-20 22,-11 47,-20 55,-20 7,0 17,-3 20,-6 8,-8 119,-54 130,-54 4,0 25,-11 47,-25 22,-14 44,-25 50,-25 13,0 222,-111 218,-115 -6,-6 -149,35 -179,50 -16,9 -38,25 -49,37 -11,12 -23,18 -27,14 -4,-3 7,-20 23,-37 22,-22 63,-42 145,-69 63,-21 152,-55 199,-74 47,-20 100,-36 118,-36 25,0 32,-4 32,-20 0,-33 -68,-30 -122,6 -42,27 -51,19 -15,-14 29,-28 70,-42 118,-42 28,0 39,-4 39,-15 0,-21 -25,-24 -230,-27 -253,-2 -396,11 -438,41 -35,24 -42,60 -17,81 13,10 15,9 15,-12 0,-30 9,-41 25,-28 8,7 22,5 44,-6 30,-15 37,-15 89,1 31,10 67,24 78,32 22,14 76,8 140,-18 l 29,-11 -23,-9 c -13,-5 -36,-6 -50,-3 -26,5 -26,5 -8,-10 25,-20 47,-20 91,-2 29,12 35,20 35,44 0,16 -7,35 -15,42 -7,6 -64,29 -124,49 -61,21 -130,51 -153,67 -59,40 -129,74 -153,74 -11,0 -38,11 -60,25 -76,47 -146,77 -198,85 -29,5 -62,11 -74,15 -13,4 -23,3 -23,-2 0,-20 40,-45 79,-50 43,-6 57,-23 19,-23 -33,0 -68,-11 -68,-20 0,-5 15,-11 33,-15 54,-11 278,-95 352,-132 60,-31 114,-68 115,-80 0,-18 -39,-16 -46,1 -9,23 -141,86 -180,86 -43,0 -93,21 -118,49 -21,23 -36,27 -36,10 0,-22 68,-79 94,-79 55,0 170,-40 199,-69 19,-19 25,-31 18,-36 -7,-3 -24,7 -41,25 -17,18 -43,33 -63,37 -35,5 -42,1 -71,-42 -13,-19 -18,-16 -88,57 -51,54 -94,87 -146,114 -87,46 -102,61 -108,111 -6,50 12,84 61,108 69,35 70,36 51,51 -17,12 -15,15 16,43 39,36 51,38 69,11 z m 2977,-11 c -10,-5 -14,-17 -11,-29 4,-14 0,-20 -11,-20 -13,0 -15,6 -10,28 10,39 24,56 38,42 8,-8 6,-14 -6,-21 z m 138,-6 c 19,-25 17,-44 -3,-36 -13,5 -15,3 -9,-13 16,-42 28,-112 27,-164 0,-40 2,-50 9,-35 5,11 9,44 9,73 1,32 5,51 11,47 11,-7 3,-136 -11,-173 -9,-23 -11,-24 -28,-8 -24,22 -61,135 -61,187 0,39 27,139 38,139 2,0 11,-8 18,-17 z m -1275,-36 c -8,-8 -11,-5 -11,9 0,27 14,41 18,19 2,-9 -1,-22 -7,-28 z m 119,18 c -7,-8 -20,-15 -29,-15 -12,0 -10,5 9,20 28,21 39,18 20,-5 z m 74,17 c 3,-5 -10,-24 -29,-42 -27,-26 -38,-31 -47,-22 -9,9 -3,19 23,42 36,32 45,35 53,22 z m 76,-6 c 0,-17 -14,-29 -23,-20 -8,8 3,34 14,34 5,0 9,-6 9,-14 z m 110,5 c 0,-6 -11,-22 -25,-37 -30,-33 -33,-23 -4,17 21,30 29,35 29,20 z m 48,-25 c -20,-19 -39,-44 -43,-55 -6,-20 -25,-30 -25,-13 0,21 33,72 46,72 8,0 17,7 20,15 4,8 13,15 22,15 11,0 4,-11 -20,-34 z m 82,24 c 0,-5 -7,-10 -16,-10 -8,0 -12,5 -9,10 3,6 10,10 16,10 5,0 9,-4 9,-10 z m 74,-9 c 3,-5 -3,-11 -14,-14 -20,-5 -26,3 -13,16 9,10 21,9 27,-2 z m -1111,-38 c 18,-9 36,-32 48,-60 23,-54 19,-84 -5,-33 -22,49 -38,68 -71,80 -38,14 -112,-10 -150,-50 -24,-25 -28,-38 -28,-82 0,-29 8,-75 17,-102 19,-55 15,-69 -9,-33 -24,37 -35,85 -35,154 0,55 4,66 30,97 48,54 131,66 203,29 z m 763,16 c 8,-13 -65,-91 -78,-83 -12,8 -4,29 25,64 23,31 41,37 53,19 z m 844,1 c 0,-5 -7,-10 -15,-10 -8,0 -15,5 -15,10 0,6 7,10 15,10 8,0 15,-4 15,-10 z m 255,0 c 3,-5 1,-10 -4,-10 -6,0 -11,5 -11,10 0,6 2,10 4,10 3,0 8,-4 11,-10 z m -1365,-14 c 0,-18 -48,-76 -62,-76 -6,0 -4,8 5,18 8,9 20,29 26,45 11,28 31,37 31,13 z m 324,-10 c -6,-16 -24,-23 -24,-8 0,10 22,33 27,28 2,-2 1,-11 -3,-20 z m 181,14 c -3,-5 -14,-10 -23,-10 -15,0 -15,2 -2,10 20,13 33,13 25,0 z m 165,0 c 0,-5 -4,-10 -9,-10 -6,0 -13,5 -16,10 -3,6 1,10 9,10 9,0 16,-4 16,-10 z m -565,-10 c 3,-5 -1,-10 -9,-10 -9,0 -16,5 -16,10 0,6 4,10 9,10 6,0 13,-4 16,-10 z m 530,-21 c -8,-12 -35,-12 -35,0 0,11 22,20 33,14 4,-2 5,-9 2,-14 z m 75,11 c 0,-5 -4,-10 -10,-10 -5,0 -10,5 -10,10 0,6 5,10 10,10 6,0 10,-4 10,-10 z m -1487,-27 c -4,-16 -7,-57 -7,-93 1,-72 34,-154 73,-178 23,-14 28,-32 8,-32 -40,0 -103,99 -109,170 -2,29 12,141 19,153 11,19 23,5 16,-20 z m 1071,-28 c 5,-25 1,-37 -22,-63 -29,-33 -52,-41 -52,-20 0,7 14,27 32,45 17,18 29,35 26,39 -4,3 -17,-6 -29,-20 -12,-14 -26,-26 -31,-26 -16,0 -7,22 24,60 35,41 41,39 52,-15 z m -146,34 c -2,-6 -8,-10 -13,-10 -5,0 -11,4 -13,10 -2,6 4,11 13,11 9,0 15,-5 13,-11 z m 202,-3 c 0,-7 -7,-19 -15,-26 -16,-13 -20,-3 -9,24 8,20 24,21 24,2 z m 400,4 c 0,-5 -5,-10 -11,-10 -5,0 -7,5 -4,10 3,6 8,10 11,10 2,0 4,-4 4,-10 z m 206,3 c -4,-5 -26,-12 -49,-18 -35,-8 -45,-17 -62,-50 -17,-34 -20,-60 -20,-182 v -143 l -30,-30 c -16,-16 -46,-32 -65,-36 l -35,-6 25,18 c 67,49 75,79 54,193 -12,62 -13,94 -6,123 14,52 50,103 87,122 30,15 115,22 101,9 z m 144,-2 c 0,-5 -7,-11 -15,-15 -15,-5 -20,5 -8,17 9,10 23,9 23,-2 z m 52,-6 c 0,-5 -5,-11 -11,-13 -6,-2 -11,4 -11,13 0,9 5,15 11,13 6,-2 11,-8 11,-13 z m 188,0 c 0,-8 -2,-15 -4,-15 -2,0 -6,7 -10,15 -3,8 -1,15 4,15 6,0 10,-7 10,-15 z m -1860,-5 c 0,-5 -18,-9 -40,-8 -22,1 -40,5 -40,10 0,4 18,8 40,8 22,0 40,-4 40,-10 z m 559,-29 c -13,-10 -37,-31 -54,-45 -16,-14 -36,-26 -42,-26 -7,0 -13,-4 -13,-10 0,-5 7,-10 15,-10 50,0 110,-70 117,-137 3,-41 -4,-55 -17,-34 -11,18 -120,63 -157,64 -33,2 -52,19 -30,29 13,6 61,75 56,81 -3,3 18,23 48,46 29,22 59,50 66,62 10,15 17,18 25,10 7,-7 4,-16 -14,-30 z m 425,24 c -4,-8 -10,-15 -15,-15 -5,0 -9,7 -9,15 0,8 7,15 15,15 9,0 12,-6 9,-15 z m 66,0 c 0,-9 -9,-15 -25,-15 -26,0 -34,15 -12,23 23,10 37,7 37,-8 z m 155,5 c -3,-5 -15,-10 -26,-10 -11,0 -17,5 -14,10 3,6 15,10 26,10 11,0 17,-4 14,-10 z m 695,-22 c 0,-19 -2,-20 -10,-8 -13,19 -13,30 0,30 6,0 10,-10 10,-22 z m -1275,1 c 6,-9 -23,-42 -78,-87 -15,-13 -47,-7 -47,8 0,5 9,12 21,15 11,4 34,22 51,41 33,36 43,40 53,23 z m 483,-1 c -7,-19 -38,-22 -38,-4 0,10 9,16 21,16 12,0 19,-5 17,-12 z m -1233,-18 c -10,-11 -20,-18 -23,-15 -7,6 18,35 31,35 5,0 2,-9 -8,-20 z m 829,-12 c 19,-36 20,-48 6,-48 -5,0 -10,7 -10,16 0,8 -7,22 -15,30 -17,17 -20,34 -6,34 5,0 17,-14 25,-32 z m 456,15 c 0,-4 -9,-16 -20,-28 -11,-12 -25,-36 -30,-53 -14,-51 11,-39 39,18 13,28 30,50 38,50 19,0 16,-17 -9,-50 -23,-32 -39,-140 -20,-140 5,0 12,12 15,28 12,61 26,105 38,116 9,8 10,6 4,-9 -4,-11 -9,-60 -10,-110 -2,-49 -8,-102 -14,-117 -8,-22 -7,-26 4,-22 17,7 33,77 39,173 3,41 11,79 17,85 9,8 10,-1 5,-37 -3,-28 0,-72 9,-109 18,-77 6,-139 -32,-163 -23,-15 -29,-15 -95,1 -5,1 -10,2 -13,3 -3,0 2,12 11,26 18,28 21,77 5,118 -6,15 -12,27 -13,27 -2,0 -2,-21 0,-47 2,-39 1,-45 -9,-30 -10,18 -12,18 -38,-6 -14,-13 -36,-30 -48,-36 -20,-10 -23,-9 -23,6 0,10 10,23 22,28 31,14 55,54 62,100 l 5,40 -12,-35 c -13,-40 -92,-124 -108,-115 -6,4 3,20 22,39 17,18 38,48 45,67 13,31 11,30 -35,-21 -56,-63 -78,-63 -32,1 17,23 34,60 38,81 5,36 8,39 32,33 22,-5 27,-2 28,16 2,25 50,79 70,79 7,0 13,-3 13,-7 z m 490,-2 c 0,-9 -33,-21 -57,-21 -19,0 -15,18 5,23 30,8 52,7 52,-2 z m -1674,-16 c 18,-14 18,-14 -8,-15 -16,0 -37,-9 -48,-20 -25,-25 -27,-86 -4,-111 19,-21 10,-46 -11,-29 -19,15 -38,94 -30,121 19,65 58,86 101,54 z m 51,7 c 13,-8 47,-101 40,-108 -13,-14 -38,13 -43,47 -4,22 -11,42 -15,45 -11,6 -12,24 -1,24 4,0 12,-4 19,-8 z m 635,-9 c 34,-39 32,-62 -9,-98 -44,-39 -63,-44 -63,-15 0,11 6,20 13,20 7,0 26,14 42,30 16,17 25,30 21,30 -5,0 -24,-13 -43,-30 -36,-32 -48,-36 -58,-20 -4,6 9,26 29,44 20,18 36,38 36,44 0,17 15,15 32,-5 z m 291,-3 c -3,-11 -14,-20 -24,-20 -22,0 -24,11 -7,28 19,19 37,14 31,-8 z m 60,14 c 11,-11 -5,-34 -24,-34 -21,0 -22,1 -13,24 6,16 25,21 37,10 z m 547,-9 c 0,-8 -6,-15 -14,-15 -7,0 -19,7 -26,15 -11,13 -8,15 14,15 16,0 26,-5 26,-15 z m -660,-4 c 0,-12 -20,-25 -27,-18 -7,7 6,27 18,27 5,0 9,-4 9,-9 z m 167,-25 c -8,-19 -37,-21 -37,-3 0,7 5,18 12,25 15,15 33,-1 25,-22 z m 431,12 c -6,-18 -28,-21 -28,-4 0,9 7,16 16,16 9,0 14,-5 12,-12 z m -2484,-4 c 9,-3 13,-10 10,-15 -8,-14 -21,-11 -28,6 -6,17 -4,18 18,9 z m 187,-20 c 30,-15 79,-45 109,-68 30,-23 85,-59 123,-79 65,-37 90,-65 45,-51 -25,7 -149,81 -212,126 -21,15 -44,28 -50,28 -16,0 -86,49 -86,60 0,15 11,12 71,-16 z m 673,-109 c 17,-26 21,-45 8,-45 -11,0 -39,60 -46,96 -3,17 -2,42 2,55 5,19 8,13 13,-29 4,-29 14,-63 23,-77 z m 1793,110 c 2,-6 -19,-15 -45,-21 -46,-9 -49,-9 -47,11 1,11 3,21 4,23 3,8 85,-4 88,-13 z M 691,3080 c 13,-10 21,-19 17,-20 -14,0 -58,23 -58,32 0,14 16,9 41,-12 z m 892,14 c 5,-5 -48,-64 -58,-64 -2,0 -5,6 -8,14 -12,31 43,72 66,50 z m 853,-22 c -8,-9 -19,-13 -22,-9 -10,9 16,38 28,31 6,-4 4,-13 -6,-22 z m 1069,18 c 3,-5 1,-10 -4,-10 -6,0 -11,5 -11,10 0,6 2,10 4,10 3,0 8,-4 11,-10 z M 370,3065 c 22,-23 22,-25 4,-25 -29,0 -48,16 -41,34 8,21 9,20 37,-9 z m 2130,-1 c 0,-8 -7,-14 -15,-14 -15,0 -21,21 -9,33 10,9 24,-2 24,-19 z m 55,16 c 3,-5 2,-16 -2,-24 -11,-20 -36,-4 -27,17 7,19 20,22 29,7 z m 595,-5 c 0,-8 -4,-15 -9,-15 -13,0 -22,16 -14,24 11,11 23,6 23,-9 z m -550,-20 c 0,-16 -6,-25 -15,-25 -15,0 -21,31 -8,43 13,14 23,6 23,-18 z m 500,11 c 0,-8 -7,-16 -15,-20 -15,-5 -21,14 -8,27 11,12 23,8 23,-7 z m -83,-25 c -3,-15 -2,-32 2,-37 4,-5 16,-37 26,-71 20,-71 16,-159 -10,-199 -19,-29 -85,-64 -120,-64 -15,0 -24,-4 -20,-10 9,-15 60,-12 101,5 35,14 35,14 28,-8 -17,-52 -54,-86 -110,-97 -30,-6 -64,-10 -76,-8 -15,2 -27,-4 -33,-17 -6,-11 -27,-23 -50,-28 -42,-8 -105,-2 -105,11 0,5 -16,14 -36,21 -34,12 -94,80 -94,107 0,22 -60,64 -91,64 -31,0 -39,14 -14,24 20,7 42,-1 83,-31 35,-26 42,-20 14,13 -38,47 -115,60 -147,24 -17,-19 -20,-19 -36,-4 -17,15 -17,18 -1,40 18,24 101,50 128,40 8,-3 12,-2 9,4 -3,6 -28,10 -55,10 -38,0 -55,-6 -79,-26 -22,-18 -31,-21 -31,-11 0,23 37,50 72,52 18,1 41,5 51,9 35,16 73,-6 162,-98 68,-70 100,-95 131,-104 66,-19 144,-14 144,9 0,5 -8,9 -17,9 -10,0 5,11 32,25 67,32 79,43 91,86 12,39 12,76 -1,182 -4,38 -4,67 1,67 10,0 44,-140 44,-181 0,-15 -7,-43 -16,-64 -19,-46 -14,-52 16,-20 19,20 23,35 22,78 -1,28 -8,75 -17,102 -16,53 -20,107 -8,118 12,13 15,7 10,-22 z m -2261,10 c 5,-5 54,-32 109,-61 55,-29 106,-57 113,-63 7,-6 43,-25 80,-43 37,-18 59,-33 48,-33 -17,-1 -121,51 -216,107 -19,11 -62,35 -95,52 -69,37 -86,50 -64,50 8,0 19,-4 25,-9 z m 2294,-1 c 0,-5 -4,-10 -10,-10 -5,0 -10,5 -10,10 0,6 5,10 10,10 6,0 10,-4 10,-10 z m 457,-12 c -3,-8 -6,-5 -6,6 -1,11 2,17 5,13 3,-3 4,-12 1,-19 z m -1664,-48 32,-8 -31,-1 c -33,-1 -94,34 -102,58 -3,8 12,2 32,-14 20,-15 51,-31 69,-35 z m 461,52 c 6,-11 -2,-22 -42,-55 -56,-46 -72,-33 -22,18 45,46 55,51 64,37 z m 976,-2 c 0,-5 -16,-10 -35,-10 -19,0 -38,0 -42,-1 -4,0 -9,4 -11,10 -2,7 14,11 42,11 25,0 46,-4 46,-10 z M 425,3030 c 3,-5 -1,-10 -10,-10 -9,0 -13,5 -10,10 3,6 8,10 10,10 2,0 7,-4 10,-10 z m 1995,0 c 0,-5 -9,-10 -20,-10 -11,0 -20,5 -20,10 0,6 9,10 20,10 11,0 20,-4 20,-10 z m 30,-40 c -12,-16 -28,-30 -36,-30 -21,0 -17,21 6,27 11,3 20,13 20,23 0,10 6,20 13,23 21,7 20,-11 -3,-43 z m 720,40 c 0,-5 -9,-14 -20,-20 -17,-9 -20,-8 -20,10 0,13 7,20 20,20 11,0 20,-4 20,-10 z m -1890,-12 c 0,-16 -34,-87 -41,-88 -16,0 -16,55 0,77 17,24 41,31 41,11 z m 404,-51 c 14,3 26,1 26,-5 0,-11 -24,-22 -50,-22 -23,0 -80,53 -80,75 0,13 9,9 39,-18 29,-26 45,-34 65,-30 z m -12,43 c 30,0 38,-14 13,-24 -23,-8 -65,11 -65,31 0,13 3,14 12,5 7,-7 25,-12 40,-12 z m 858,-6 c 0,-8 -6,-14 -13,-14 -8,0 -19,-11 -25,-25 -10,-21 -42,-36 -42,-20 0,8 43,69 55,77 12,9 25,0 25,-18 z m 575,5 c 0,-7 -8,-15 -17,-17 -18,-3 -25,18 -11,32 10,10 28,1 28,-15 z m -527,-7 c 2,-7 -4,-15 -13,-18 -20,-8 -27,-1 -19,20 7,18 25,17 32,-2 z m 729,-5 c -6,-18 -67,-27 -96,-14 -26,10 -25,11 14,16 68,10 86,9 82,-2 z m -1720,-32 c 20,-19 34,-37 32,-40 -10,-9 -66,34 -72,54 -7,29 -2,27 40,-14 z m -993,-6 c 33,-17 78,-44 99,-60 26,-21 57,-34 100,-41 81,-15 95,-28 29,-28 -56,0 -87,12 -161,64 -47,33 -133,76 -151,76 -5,0 -10,5 -10,10 0,18 31,11 94,-21 z m 456,16 c 17,-20 -7,-20 -34,0 -19,15 -19,15 1,15 11,0 26,-7 33,-15 z m 1338,3 c -3,-7 -15,-14 -29,-16 -23,-2 -23,-2 -5,13 24,18 39,20 34,3 z m 782,3 c 0,-5 -9,-11 -20,-14 -13,-3 -20,0 -20,9 0,8 9,14 20,14 11,0 20,-4 20,-9 z m -1877,-70 c -10,-22 -22,-41 -27,-41 -12,0 3,83 17,92 23,14 28,-10 10,-51 z m 1815,48 c -2,-6 -8,-10 -13,-10 -5,0 -11,4 -13,10 -2,6 4,11 13,11 9,0 15,-5 13,-11 z m -568,-7 c 0,-5 -9,-17 -19,-26 -23,-20 -39,-4 -19,18 14,17 38,21 38,8 z m 817,-16 c 9,-8 -7,-11 -67,-12 -58,0 -80,3 -80,12 0,7 8,14 18,17 29,6 116,-4 129,-17 z m -1261,-32 c 148,-70 219,-158 289,-355 18,-52 34,-80 48,-87 56,-25 73,-29 96,-20 15,5 28,5 35,-2 14,-14 2,-22 -46,-27 -82,-9 -165,69 -181,168 -3,19 -26,69 -51,111 -54,88 -132,158 -240,212 -94,48 -51,48 50,0 z m 194,32 c 0,-5 -71,-76 -76,-76 -12,0 -1,21 25,49 25,27 51,40 51,27 z m 115,-6 c -3,-5 -15,-10 -27,-10 -11,0 -43,-11 -70,-25 -29,-15 -48,-20 -46,-13 6,19 88,58 121,58 16,0 26,-4 22,-10 z m 780,-4 c 0,-5 -10,-12 -22,-17 -18,-6 -25,-4 -34,12 -10,19 -8,20 23,17 18,-2 33,-7 33,-12 z m -1260,-20 c 11,-7 31,-16 45,-19 35,-9 176,-119 231,-180 49,-55 93,-131 87,-149 -3,-7 -13,6 -25,28 -23,45 -73,104 -87,104 -5,0 0,-10 12,-22 11,-13 32,-47 47,-76 36,-72 109,-117 77,-47 -6,14 -7,27 -2,30 11,7 16,-2 24,-41 6,-28 4,-32 -18,-38 -39,-10 -89,22 -109,68 -9,22 -20,36 -24,33 -4,-4 -1,-13 5,-19 14,-14 16,-28 3,-28 -17,0 -49,64 -55,112 -7,43 -5,47 11,42 10,-3 7,1 -7,10 -23,13 -25,13 -28,-5 -8,-46 27,-125 78,-177 60,-62 52,-69 -13,-12 -49,43 -91,120 -103,184 -6,34 -5,38 10,33 22,-9 20,-4 -10,24 l -26,24 6,-22 c 6,-17 3,-23 -8,-23 -19,0 -47,40 -62,89 l -12,36 -1,-37 c -1,-49 13,-79 52,-104 23,-16 39,-39 56,-85 37,-100 135,-188 210,-190 14,0 35,-5 46,-10 14,-7 2,-8 -41,-5 -145,9 -316,183 -369,376 -9,32 -14,40 -19,29 -4,-10 3,-39 18,-70 35,-71 34,-99 0,-64 -8,8 -19,34 -23,57 -5,24 -9,33 -10,21 -1,-13 -5,-23 -11,-23 -12,0 -23,40 -18,66 2,14 -2,18 -15,16 -12,-2 -21,4 -24,17 -3,12 -9,21 -14,21 -15,0 -10,-26 11,-53 24,-30 25,-37 6,-37 -21,0 -58,51 -53,72 3,10 1,21 -4,24 -5,3 -9,14 -9,26 0,19 4,20 73,13 39,-4 81,-13 92,-19 z m -571,-1 c 23,-18 21,-20 -23,-29 -27,-5 -32,-3 -27,10 3,9 6,20 6,25 0,13 22,10 44,-6 z m 1756,7 c 0,-13 -12,-22 -22,-16 -10,6 -1,24 13,24 5,0 9,-4 9,-8 z m -1521,-18 c 9,-8 -13,-24 -34,-24 -25,0 -37,-24 -32,-64 1,-14 -7,-23 -24,-30 -63,-22 -80,34 -29,96 28,34 33,36 72,31 24,-3 45,-7 47,-9 z m 179,-88 c 17,-28 18,-36 7,-36 -21,0 -19,-22 4,-47 11,-11 28,-38 39,-60 23,-44 56,-63 109,-63 32,0 34,-2 22,-17 -13,-15 -10,-16 33,-10 36,5 47,3 52,-9 10,-25 -37,-35 -91,-19 -55,17 -63,14 -28,-9 20,-13 42,-16 92,-13 57,3 64,2 48,-9 -28,-21 -81,-27 -128,-16 -37,10 -40,9 -23,-4 23,-16 32,-17 101,-14 66,3 52,-10 -22,-21 l -58,-8 70,4 c 39,3 81,7 95,10 23,6 22,5 -5,-12 -22,-13 -51,-18 -110,-18 -104,0 -161,28 -225,110 -79,100 -150,121 -257,74 -54,-22 -55,-17 -3,17 31,21 52,26 99,27 75,0 123,-28 171,-103 31,-48 89,-91 122,-90 7,1 -3,9 -22,18 -22,11 -50,39 -75,78 -22,34 -58,74 -79,90 -36,25 -48,28 -117,27 -65,0 -82,-4 -115,-27 -21,-14 -44,-36 -51,-48 -17,-32 -16,-5 2,38 27,64 129,128 187,117 46,-8 89,-31 116,-62 l 24,-26 -7,25 c -11,36 -22,48 -63,61 -20,6 -41,14 -47,17 -5,3 -26,5 -47,3 -52,-4 -47,5 13,22 44,13 56,14 91,1 57,-20 59,-19 42,22 -10,23 -13,47 -8,63 7,25 7,25 14,-10 3,-20 16,-53 28,-73 z m 736,73 c 36,-22 14,-26 -24,-4 -33,19 -87,20 -71,2 8,-11 1,-13 -40,-13 -42,1 -53,-3 -69,-24 -10,-14 -21,-22 -25,-19 -11,11 41,63 76,76 42,15 111,8 153,-18 z m 675,-10 c -18,-11 -39,-11 -39,-1 0,14 44,31 49,20 2,-6 -3,-14 -10,-19 z m 206,21 c -8,-12 -165,-14 -165,-1 0,5 39,9 86,10 57,1 84,-2 79,-9 z m -3085,-9 c 0,-5 9,-13 21,-16 11,-4 18,-9 15,-13 -8,-7 -56,19 -56,30 0,4 5,8 10,8 6,0 10,-4 10,-9 z m 1399,-23 c 12,-32 6,-37 -31,-29 -34,8 -94,-4 -115,-21 -9,-8 -13,-6 -13,4 0,8 6,21 13,30 14,18 65,30 73,17 3,-5 15,-2 27,6 29,20 36,19 46,-7 z m 998,-19 c -17,-42 -47,-70 -47,-45 0,17 51,88 58,82 2,-2 -3,-19 -11,-37 z m -588,9 c 52,-30 161,-139 161,-160 0,-10 4,-18 8,-18 5,0 14,-11 20,-25 15,-31 15,-35 2,-35 -5,0 -19,19 -31,42 -28,54 -122,153 -176,185 -24,14 -43,27 -43,29 0,10 26,2 59,-18 z m 1011,12 c 0,-5 -4,-10 -10,-10 -5,0 -10,5 -10,10 0,6 5,10 10,10 6,0 10,-4 10,-10 z m 379,-26 c 23,-9 41,-20 41,-25 0,-13 -23,-10 -44,6 -22,16 -61,21 -51,6 3,-5 18,-12 33,-16 38,-9 78,-45 86,-77 10,-44 -19,-35 -40,11 -10,24 -28,44 -43,50 -72,29 -225,13 -324,-33 -33,-15 -61,-25 -64,-22 -28,27 87,75 200,83 42,3 77,10 77,16 0,14 -123,0 -194,-24 -56,-18 -81,-18 -60,-1 12,11 76,29 144,40 75,13 189,6 239,-14 z m -2169,-14 c -18,-34 -9,-93 18,-105 23,-10 29,-29 12,-40 -6,-4 -24,8 -40,25 -25,27 -30,29 -30,13 0,-26 20,-51 45,-55 24,-4 32,-43 11,-51 -33,-13 -96,65 -96,119 0,32 36,94 55,94 7,0 16,7 19,16 4,9 9,14 12,11 3,-3 0,-15 -6,-27 z m 1292,-44 c 37,-40 77,-72 104,-83 51,-21 59,-36 12,-22 -18,5 -34,9 -36,9 -6,0 -152,148 -152,154 0,14 15,2 72,-58 z m -2274,-6 c 15,-32 77,-62 111,-53 12,3 21,1 21,-6 0,-34 -139,5 -153,44 -4,8 -11,15 -17,15 -22,0 19,-56 58,-78 32,-18 55,-22 123,-22 58,0 79,-3 69,-10 -20,-13 -131,-13 -185,1 -59,15 -83,43 -85,99 -2,62 -3,61 23,49 12,-6 28,-23 35,-39 z m 587,30 c 3,-5 -1,-10 -9,-10 -8,0 -18,5 -21,10 -3,6 1,10 9,10 8,0 18,-4 21,-10 z m 435,-14 c 0,-14 7,-31 15,-40 8,-8 15,-19 15,-25 0,-18 -29,-12 -40,8 -13,25 -13,81 0,81 6,0 10,-11 10,-24 z m 64,-18 c 6,-4 5,-12 -4,-23 -15,-18 -25,-11 -34,26 -7,32 4,46 18,22 5,-10 14,-21 20,-25 z m 1966,12 c 0,-5 -9,-9 -20,-7 -31,5 -36,17 -7,17 15,0 27,-4 27,-10 z M 447,2760 c 2,0 3,-4 3,-10 0,-16 -26,-11 -51,10 l -24,19 35,-9 c 19,-6 36,-10 37,-10 z m 1453,-51 c 0,-11 7,-22 15,-25 17,-7 21,-24 5,-24 -18,0 -80,71 -80,91 0,20 0,20 30,-1 17,-12 30,-30 30,-41 z m 822,49 c 13,-7 28,-19 34,-27 11,-14 62,-12 122,5 37,11 25,-14 -14,-26 -52,-18 -140,-8 -166,17 -11,12 -17,26 -14,32 9,14 11,14 38,-1 z m 463,-18 c -3,-5 -14,-10 -23,-10 -15,0 -15,2 -2,10 20,13 33,13 25,0 z m 202,4 c -3,-3 -12,-4 -19,-1 -8,3 -5,6 6,6 11,1 17,-2 13,-5 z m -1966,-52 c -17,-22 -31,-52 -31,-66 0,-14 -4,-26 -9,-26 -18,0 10,86 37,111 38,37 40,27 3,-19 z m 522,-48 c 17,4 26,2 22,-4 -3,-6 -23,-10 -43,-10 -27,0 -44,8 -69,32 -54,53 -41,72 15,21 39,-36 52,-43 75,-39 z m 1447,66 c 0,-5 -9,-6 -20,-3 -11,3 -20,9 -20,13 0,5 9,6 20,3 11,-3 20,-9 20,-13 z m -276,-5 c -10,-8 -23,-15 -28,-15 -6,0 -1,7 10,15 10,8 23,15 28,15 6,0 1,-7 -10,-15 z m -1875,-27 c 14,-40 59,-88 82,-88 10,0 21,-4 24,-10 10,-16 -38,-12 -62,5 -23,16 -57,67 -68,103 -10,35 12,26 24,-10 z m 2191,22 c 0,-5 -2,-10 -4,-10 -3,0 -8,5 -11,10 -3,6 -1,10 4,10 6,0 11,-4 11,-10 z m -20,-30 c 70,-24 76,-27 69,-35 -3,-2 -32,4 -66,15 -33,10 -104,22 -156,26 -122,9 -120,28 2,22 53,-3 111,-14 151,-28 z m -977,7 c 18,-8 39,-22 47,-32 14,-17 13,-17 -10,-10 -14,4 -29,11 -34,16 -6,5 -25,9 -43,9 -33,0 -45,14 -20,23 20,8 26,8 60,-6 z M 720,2650 c 0,-5 -7,-10 -16,-10 -8,0 -12,5 -9,10 3,6 10,10 16,10 5,0 9,-4 9,-10 z m -50,-9 c 0,-10 -51,-21 -89,-20 -22,1 -20,3 14,14 48,16 75,18 75,6 z m 381,0 c -8,-5 -20,-7 -28,-4 -21,8 -15,13 15,13 20,0 23,-3 13,-9 z m 133,0 c 12,-19 -40,-59 -94,-72 -30,-8 -79,-29 -110,-48 -30,-19 -68,-41 -85,-50 -37,-19 -158,-27 -210,-12 -41,11 -59,6 -35,-10 80,-51 241,-24 355,61 23,16 59,32 85,36 54,8 120,43 120,64 0,10 3,11 11,3 7,-7 9,-18 7,-25 -6,-13 -82,-58 -100,-58 -5,0 -42,-21 -81,-46 -86,-56 -150,-73 -276,-74 -89,0 -96,2 -162,38 -38,20 -69,40 -69,45 0,4 22,7 49,7 50,0 72,13 53,32 -12,12 -70,26 -152,37 -56,8 -150,48 -150,64 0,12 49,-1 65,-17 20,-19 137,-28 208,-16 34,6 72,13 85,15 12,2 32,7 43,10 15,5 20,3 17,-6 -2,-7 -32,-20 -66,-29 -33,-8 -64,-18 -68,-22 -13,-14 101,4 219,34 64,16 123,28 129,26 12,-4 -68,-31 -177,-58 -27,-7 -54,-17 -60,-22 -16,-15 93,2 185,29 47,14 118,34 159,44 40,10 76,21 79,24 8,8 20,6 26,-4 z m -334,-11 c -14,-4 -36,-8 -50,-8 -23,-1 -23,0 -5,8 11,5 34,8 50,8 29,0 29,0 5,-8 z m 1610,-12 c 11,-12 20,-27 20,-32 0,-6 -8,-1 -18,11 -9,12 -28,27 -42,32 -24,9 -24,10 -3,10 12,1 31,-9 43,-21 z m -1925,2 c 4,-6 -13,-10 -44,-10 -28,0 -51,5 -51,10 0,6 20,10 44,10 25,0 48,-4 51,-10 z m 1030,-10 c 4,-6 -5,-10 -20,-10 -15,0 -24,4 -20,10 3,6 12,10 20,10 8,0 17,-4 20,-10 z m 94,-4 c 15,-8 40,-31 55,-51 56,-73 97,-104 159,-119 15,-3 27,-13 27,-21 0,-40 -187,75 -205,127 -7,20 -69,58 -96,58 -10,0 -19,5 -19,10 0,15 47,12 79,-4 z m 1374,-33 c -4,-24 -14,-37 -36,-48 -49,-25 -51,-18 -6,35 23,28 43,49 44,48 2,-2 0,-18 -2,-35 z m -1749,-9 c 9,-3 16,-17 16,-31 0,-35 -34,-27 -38,10 -4,29 -2,30 22,21 z m 1166,-4 c 0,-5 -4,-10 -10,-10 -5,0 -10,5 -10,10 0,6 5,10 10,10 6,0 10,-4 10,-10 z m -1200,-40 c 0,-29 -27,-50 -36,-27 -7,19 14,69 26,62 5,-3 10,-19 10,-35 z m 98,19 c -2,-6 -8,-10 -13,-10 -5,0 -11,4 -13,10 -2,6 4,11 13,11 9,0 15,-5 13,-11 z m 300,-9 c 17,-11 32,-27 32,-36 0,-16 -7,-16 -55,1 -14,5 -11,-1 10,-19 28,-24 29,-26 8,-26 -24,0 -63,32 -82,68 -13,24 -3,30 17,10 9,-9 12,-8 12,5 0,22 18,21 58,-3 z m 802,-7 c 0,-2 -6,-11 -14,-18 -12,-12 -14,-11 -12,9 0,14 6,22 14,19 6,-3 12,-7 12,-10 z m 384,-27 c -11,-6 -28,-14 -39,-18 -28,-9 -126,-8 -150,1 -13,6 6,8 50,7 54,-1 79,4 110,20 40,21 66,12 29,-10 z m -1638,-32 c -3,-9 -10,-12 -16,-9 -14,9 -13,38 3,54 10,10 13,8 15,-9 2,-12 1,-28 -2,-36 z m 238,37 c 3,-5 26,-14 50,-20 25,-6 56,-23 69,-37 13,-14 41,-31 63,-39 31,-11 35,-15 21,-20 -11,-5 -37,3 -69,19 -28,15 -53,24 -57,21 -10,-11 42,-45 87,-56 72,-19 49,-71 -28,-63 -28,3 -31,2 -15,-5 11,-5 36,-10 55,-11 32,-1 33,-2 17,-14 -42,-32 -148,6 -177,65 -26,49 -46,62 -36,23 4,-16 21,-44 39,-61 39,-41 28,-42 -27,-2 -47,33 -105,45 -139,28 -28,-14 -97,-90 -97,-106 0,-7 6,-12 13,-10 7,1 13,-11 15,-33 1,-19 5,-54 8,-78 5,-40 8,-43 32,-40 23,3 27,7 24,31 -1,15 2,27 8,27 5,0 10,-11 10,-24 0,-51 17,-76 52,-76 34,0 29,-14 -7,-22 -19,-5 -19,-5 -1,-13 11,-5 26,-3 37,3 24,15 29,15 29,-1 0,-7 -13,-21 -30,-30 -48,-29 -37,-49 13,-26 32,14 47,49 47,103 0,29 7,52 21,70 23,30 45,35 34,9 -4,-10 -8,-44 -10,-76 -1,-43 -7,-63 -23,-80 -12,-13 -22,-28 -22,-34 0,-16 -54,-35 -105,-35 -57,-1 -38,-18 21,-18 27,0 49,7 64,20 13,11 27,20 31,20 18,0 50,83 53,135 4,65 18,85 60,85 28,0 76,19 51,20 -132,5 -147,8 -173,33 -15,13 -37,30 -50,36 -28,15 -84,5 -111,-20 -26,-25 -34,-24 -21,1 6,11 29,29 52,40 46,22 71,18 151,-22 61,-31 54,-14 -9,23 -68,38 -139,45 -171,17 -24,-22 -33,-23 -33,-4 0,19 68,50 110,50 24,0 53,-11 91,-37 57,-38 80,-47 61,-24 -8,9 6,12 64,12 84,0 96,-17 18,-26 -27,-3 -37,-7 -21,-7 15,-1 27,-7 27,-13 0,-8 -12,-10 -35,-6 -19,3 -37,2 -40,-2 -8,-14 49,-20 91,-11 57,14 60,13 33,-16 l -24,-27 27,7 c 15,3 30,2 33,-4 3,-5 -2,-10 -12,-10 -33,-1 -127,-38 -140,-56 -7,-9 -12,-36 -11,-59 1,-48 -29,-121 -61,-150 -16,-13 -41,-20 -84,-23 -83,-5 -145,21 -187,79 -26,36 -30,51 -30,106 0,35 -4,63 -10,63 -5,0 -10,-8 -10,-18 0,-10 -5,-23 -12,-30 -9,-9 -9,-17 0,-34 6,-13 14,-34 18,-48 4,-14 20,-41 35,-60 38,-46 37,-61 -2,-24 -44,41 -68,102 -75,186 -5,56 -3,82 10,112 20,48 20,57 1,50 -8,-3 -17,-21 -21,-40 -8,-43 -24,-44 -24,-1 0,70 43,151 107,205 83,69 163,112 210,112 23,0 44,-4 47,-9 z m -289,-57 c 0,-38 -20,-58 -31,-30 -6,16 16,77 26,71 3,-2 5,-20 5,-41 z m 1709,21 c -10,-8 -36,-19 -57,-25 -21,-6 -45,-14 -53,-17 -8,-3 -14,0 -14,6 0,6 10,11 23,11 12,0 43,10 67,23 49,25 65,26 34,2 z m -1251,-14 c 21,-13 36,-26 33,-29 -10,-9 -61,18 -75,39 -14,24 -11,23 42,-10 z m 97,9 c 0,-5 6,-10 13,-10 18,0 35,-36 41,-85 2,-22 8,-53 12,-69 6,-25 4,-28 -10,-23 -14,6 -16,3 -11,-16 11,-34 22,-42 39,-27 16,12 15,34 -4,90 -5,14 -11,40 -14,58 -7,43 17,44 40,1 15,-31 16,-46 15,-267 -1,-74 -20,-131 -55,-169 -30,-31 -55,-38 -118,-35 -44,3 -34,29 13,35 47,6 93,42 71,56 -7,4 -10,15 -6,24 8,22 24,22 24,0 0,-37 18,5 23,55 7,63 -6,69 -20,10 l -11,-43 -1,51 c 0,28 -6,77 -12,110 -10,51 -13,94 -18,212 -1,13 -5,20 -11,17 -6,-4 -10,-12 -9,-18 4,-30 -2,-60 -9,-51 -11,12 -3,104 9,104 5,0 9,-4 9,-10 z m 1218,-7 c -3,-19 -53,-41 -64,-30 -11,11 27,47 48,47 13,0 18,-6 16,-17 z m -1821,-95 c -10,-31 -22,-36 -30,-14 -5,13 0,33 21,96 10,27 18,-54 9,-82 z m 1540,86 c -3,-3 -12,-4 -19,-1 -8,3 -5,6 6,6 11,1 17,-2 13,-5 z m 63,-4 c 13,-8 13,-10 -2,-10 -9,0 -20,5 -23,10 -8,13 5,13 25,0 z m -598,-22 c -16,-16 -177,-25 -168,-9 5,8 22,10 49,6 26,-4 57,-1 82,8 43,15 56,14 37,-5 z m 698,-8 c 0,-5 -7,-10 -16,-10 -8,0 -12,5 -9,10 3,6 10,10 16,10 5,0 9,-4 9,-10 z m 101,-38 c -11,-15 -35,-36 -54,-47 -33,-18 -35,-18 -76,1 -47,22 -52,51 -8,46 15,-1 36,2 47,8 13,7 20,7 20,1 0,-6 -12,-17 -27,-25 -23,-12 -24,-15 -9,-16 11,0 32,12 47,26 33,32 73,53 77,42 2,-4 -5,-20 -17,-36 z m -403,21 c 43,-5 50,-8 41,-19 -14,-17 -43,-18 -70,-4 -13,8 -19,7 -19,0 0,-6 14,-17 30,-24 38,-16 27,-28 -17,-20 -19,4 -33,2 -33,-4 0,-16 69,-24 106,-12 19,7 41,23 49,38 11,21 14,23 15,9 0,-28 -54,-77 -86,-77 -15,0 -53,5 -84,12 -55,11 -58,11 -101,-18 -24,-16 -52,-45 -61,-64 -9,-19 -17,-32 -18,-28 0,3 -3,13 -6,21 -3,9 9,31 28,53 33,38 23,39 -19,1 -13,-11 -26,-17 -30,-14 -3,4 15,28 42,54 46,44 47,46 19,39 -16,-4 -39,-18 -51,-31 -23,-27 -33,-31 -33,-15 0,16 61,80 76,80 8,0 17,6 20,14 3,8 22,14 51,14 25,1 48,4 52,7 3,3 15,3 26,0 11,-4 44,-9 73,-12 z m 218,4 c 4,-4 -7,-7 -25,-7 -18,0 -30,4 -27,8 6,10 42,9 52,-1 z m -527,-24 c -24,-27 -40,-57 -53,-95 -8,-26 -26,-22 -26,5 0,25 21,60 57,95 34,32 52,27 22,-5 z m 81,17 c 0,-6 -10,-14 -22,-19 -35,-13 -70,-63 -81,-116 -3,-11 -5,-4 -6,15 -1,41 25,84 65,111 33,21 44,24 44,9 z m -170,-11 c 0,-5 5,-7 10,-4 14,9 13,3 -11,-46 -19,-41 -20,-42 -15,-11 3,17 1,32 -4,32 -13,0 -30,-34 -30,-59 0,-24 -18,-28 -27,-6 -3,9 2,24 11,34 9,10 16,23 16,29 0,13 28,42 41,42 5,0 9,-5 9,-11 z m 541,-15 c 11,-32 -4,-88 -32,-120 -14,-14 -16,-23 -8,-31 16,-16 -18,-63 -58,-79 -39,-17 -95,-18 -110,-3 -8,8 -11,6 -10,-7 2,-12 -8,-20 -30,-26 -19,-5 -39,-20 -50,-38 -9,-17 -20,-30 -23,-30 -3,0 -14,15 -24,34 -20,37 -17,74 9,100 8,8 15,19 15,25 0,26 41,38 113,33 66,-4 78,-2 114,21 44,28 76,89 66,126 -8,31 15,26 28,-5 z m -737,-10 c 15,-40 -4,-154 -30,-175 -18,-15 -18,-10 2,36 11,28 14,53 9,97 -4,36 -3,58 3,58 5,0 13,-7 16,-16 z m 112,-29 c -9,-13 -16,-38 -16,-55 0,-16 -4,-30 -10,-30 -5,0 -10,8 -10,17 0,24 23,83 32,83 4,0 8,8 9,18 0,10 2,12 6,4 3,-7 -2,-24 -11,-37 z m -964,3 c 3,-18 2,-44 -2,-58 l -8,-25 -9,24 c -5,13 -8,33 -7,45 1,11 3,27 3,34 2,25 19,11 23,-20 z m 808,12 c 0,-11 -2,-20 -5,-20 -2,0 -9,9 -15,20 -9,16 -8,20 5,20 8,0 15,-9 15,-20 z m 116,-12 c -4,-18 -10,-54 -13,-80 -3,-26 -10,-45 -15,-42 -4,3 -6,8 -4,12 2,4 1,37 -3,75 -7,66 -7,67 17,67 22,0 24,-3 18,-32 z m -970,6 c -3,-9 -6,-40 -6,-70 0,-46 -2,-53 -17,-47 -14,5 -15,3 -6,-7 13,-14 2,-53 -30,-107 -22,-39 -24,-39 -46,-11 -16,19 -21,20 -51,10 -18,-7 -35,-10 -38,-7 -2,2 11,24 29,49 19,24 56,74 83,110 27,36 53,66 58,66 4,0 8,7 8,15 0,8 5,15 11,15 6,0 8,-7 5,-16 z m 693,-29 v -20 l -9,20 c -5,11 -9,27 -9,35 -1,13 0,13 9,0 5,-8 9,-24 9,-35 z m 1052,-3 c -7,-2 -18,1 -23,6 -8,8 -4,9 13,5 13,-4 18,-8 10,-11 z m -882,-9 c 0,-10 -4,-27 -9,-38 -7,-16 -9,-13 -9,18 -1,20 4,37 9,37 6,0 10,-8 9,-17 z m 537,-30 c -15,-3 -45,-13 -65,-24 l -36,-20 28,26 c 20,18 38,25 65,24 32,-2 33,-3 8,-6 z m 97,-10 c -13,-2 -33,-2 -45,0 -13,2 -3,4 22,4 25,0 35,-2 23,-4 z m 293,-49 c 8,-41 -8,-83 -43,-116 l -25,-23 20,39 c 15,28 20,54 19,96 -2,45 1,56 10,48 7,-5 15,-25 19,-44 z m -677,21 c 35,-17 52,-33 60,-56 15,-45 -2,-101 -40,-134 -41,-33 -49,-25 -15,15 19,23 26,43 26,75 0,47 -7,56 -64,76 -37,13 -39,13 -54,-9 -9,-14 -24,-22 -43,-22 -36,0 -36,9 -1,42 47,45 66,46 131,13 z m 735,-28 c 22,-59 20,-98 -8,-135 -56,-77 -108,-99 -189,-82 -34,7 -57,18 -65,31 -13,20 -11,20 51,17 57,-2 69,1 105,26 58,39 72,66 72,131 0,30 4,55 9,55 4,0 16,-19 25,-43 z m -920,-26 c -6,-6 -24,19 -24,34 1,6 7,1 15,-9 8,-11 12,-22 9,-25 z m -906,-25 c -18,-37 -34,-106 -24,-106 3,0 14,17 25,38 16,28 20,32 21,16 0,-24 -36,-74 -53,-74 -7,0 -20,12 -30,25 -18,25 -17,26 19,91 26,46 40,62 47,55 8,-8 6,-21 -5,-45 z m 302,46 c 0,-5 -11,-15 -25,-22 -13,-7 -29,-26 -35,-43 -5,-17 -12,-28 -15,-25 -9,8 12,55 35,78 21,21 40,26 40,12 z m 50,-29 c 0,-3 -8,-15 -17,-25 -10,-12 -16,-32 -15,-54 2,-25 -1,-34 -13,-34 -21,0 -20,77 2,102 16,18 43,25 43,11 z m 530,-20 c -1,-27 -1,-27 -15,-9 -19,25 -19,36 0,36 10,0 15,-10 15,-27 z m 190,17 c 0,-6 -11,-15 -24,-21 -24,-11 -36,-35 -36,-72 0,-14 8,-10 36,17 35,34 54,38 54,13 0,-13 -91,-117 -102,-117 -13,0 -20,89 -9,122 13,40 81,89 81,58 z m 130,1 c 0,-5 3,-18 6,-28 5,-16 4,-16 -10,1 -18,23 -20,36 -6,36 6,0 10,-4 10,-9 z m 517,-13 c -3,-8 -6,-5 -6,6 -1,11 2,17 5,13 3,-3 4,-12 1,-19 z m -1349,-24 -26,-26 5,25 c 3,14 13,28 22,30 27,6 26,-2 -1,-29 z m 477,-13 c 6,-26 4,-32 -6,-29 -8,3 -15,22 -17,44 -4,46 12,36 23,-15 z m 125,39 c 0,-5 -5,-10 -11,-10 -5,0 -7,5 -4,10 3,6 8,10 11,10 2,0 4,-4 4,-10 z m -278,-43 c 1,-25 -4,-43 -16,-55 -17,-16 -17,-15 -11,33 11,77 22,86 27,22 z m 1755,29 c 16,-15 -9,-16 -49,-1 l -43,16 43,-5 c 24,-2 46,-7 49,-10 z m 68,-15 c 22,-2 43,-30 38,-50 -6,-25 -22,-27 -49,-5 -18,15 -18,15 4,9 33,-9 27,9 -8,22 -16,6 -30,19 -30,27 0,13 4,14 18,7 9,-5 22,-9 27,-10 z m -1316,-36 c 16,-9 13,-52 -5,-80 -15,-23 -14,-23 8,-18 l 23,5 -24,-21 c -28,-25 -61,-30 -41,-6 10,12 9,15 -6,15 -18,1 -18,1 -1,11 21,12 22,29 2,29 -8,0 -15,-4 -15,-10 0,-5 -18,-19 -39,-30 -22,-11 -47,-30 -55,-42 -9,-12 -19,-18 -23,-14 -11,11 10,39 47,61 18,11 48,35 67,53 29,30 33,31 33,13 0,-12 5,-21 11,-21 11,0 9,21 -5,80 -6,23 -6,23 3,4 5,-12 14,-25 20,-29 z m -269,31 c 0,-3 -4,-8 -10,-11 -5,-3 -10,-1 -10,4 0,6 5,11 10,11 6,0 10,-2 10,-4 z m 26,-47 c -10,-48 -9,-54 27,-122 36,-70 47,-117 27,-117 -5,0 -10,9 -10,20 0,11 -13,38 -29,60 -15,21 -34,53 -41,69 -7,17 -16,28 -21,25 -5,-3 -8,10 -8,28 1,23 3,26 6,11 2,-13 9,-23 15,-23 5,0 8,6 5,14 -8,20 14,86 28,86 9,0 9,-13 1,-51 z m 1222,44 c -10,-2 -28,-2 -40,0 -13,2 -5,4 17,4 22,1 32,-1 23,-4 z m 72,-3 c 0,-5 -4,-10 -10,-10 -5,0 -10,5 -10,10 0,6 5,10 10,10 6,0 10,-4 10,-10 z m -1610,-15 c 0,-8 -8,-15 -18,-15 -10,0 -23,-5 -30,-12 -21,-21 -22,-2 -2,20 24,25 50,29 50,7 z m 1677,-1 c -3,-3 -12,-4 -19,-1 -8,3 -5,6 6,6 11,1 17,-2 13,-5 z m 143,-9 c 14,-16 10,-18 -14,-9 -9,3 -16,10 -16,15 0,14 16,11 30,-6 z m -240,-15 c 0,-5 -7,-7 -15,-4 -8,4 -15,8 -15,10 0,2 7,4 15,4 8,0 15,-4 15,-10 z m 118,-9 c 8,-4 -7,-7 -33,-6 -25,1 -52,8 -58,15 -10,9 -3,11 33,5 25,-4 51,-10 58,-14 z m -1488,5 c 0,-3 -4,-8 -10,-11 -5,-3 -10,-1 -10,4 0,6 5,11 10,11 6,0 10,-2 10,-4 z m -999,-24 c 21,-21 17,-52 -8,-52 -9,0 -13,6 -10,14 4,11 1,13 -10,9 -13,-5 -15,-2 -10,11 4,10 7,22 7,27 0,14 9,11 31,-9 z m 2579,8 c 0,-5 -4,-10 -10,-10 -5,0 -10,5 -10,10 0,6 5,10 10,10 6,0 10,-4 10,-10 z m -925,-10 c 22,-9 24,-12 14,-31 -6,-12 -8,-36 -4,-55 5,-31 4,-34 -18,-34 -14,0 -28,7 -31,16 -11,30 -4,114 9,114 2,0 15,-4 30,-10 z m 1014,4 c 21,-4 31,-12 31,-25 0,-17 -3,-17 -45,-2 -68,23 -59,41 14,27 z m -1252,-55 c -3,-24 -14,-47 -29,-59 -12,-11 -18,-19 -12,-20 7,0 26,16 43,35 23,27 31,31 31,18 -1,-31 -38,-65 -82,-74 -74,-16 -107,-40 -133,-96 -14,-28 -25,-61 -25,-72 0,-37 -31,-87 -63,-101 -50,-22 -131,-13 -199,22 -33,18 -36,22 -27,40 6,12 14,16 18,11 24,-38 118,-50 171,-23 64,32 90,73 90,137 0,45 5,63 26,90 21,28 31,33 68,33 55,0 93,28 102,75 9,47 28,32 21,-16 z m -1357,32 c 0,-5 -10,-31 -21,-58 -22,-49 -39,-45 -21,5 6,15 13,35 16,45 6,18 26,24 26,8 z m 760,-11 c 0,-13 -34,-30 -59,-30 -12,0 -21,7 -21,16 0,10 6,13 18,10 9,-3 24,-1 32,4 19,12 30,13 30,0 z m 200,-12 c 0,-16 -3,-19 -11,-11 -6,6 -8,16 -5,22 11,17 16,13 16,-11 z m 370,18 c 0,-3 -4,-8 -10,-11 -5,-3 -10,-1 -10,4 0,6 5,11 10,11 6,0 10,-2 10,-4 z m -1235,-80 c -29,-69 -49,-106 -57,-106 -5,0 -1,17 8,38 14,33 21,52 50,127 7,19 7,19 12,1 2,-10 -4,-37 -13,-60 z m 2525,48 c 17,-17 3,-18 -34,-4 -32,12 -35,34 -3,25 12,-4 29,-13 37,-21 z m -2499,-88 c -20,-43 -41,-68 -41,-48 0,6 11,34 25,64 14,29 26,62 27,73 0,11 3,6 5,-12 3,-18 -4,-50 -16,-77 z m -117,23 c -9,-22 -23,-39 -31,-39 -8,0 -13,3 -11,8 35,74 53,102 56,87 2,-10 -4,-35 -14,-56 z m 66,61 c 0,-18 -49,-117 -65,-130 -21,-17 -19,-1 5,38 11,18 20,37 20,42 0,19 20,60 30,60 5,0 10,-4 10,-10 z m 1476,-63 c 16,-43 18,-71 4,-62 -15,9 -42,113 -33,127 5,9 8,7 11,-7 2,-11 10,-37 18,-58 z m -621,1 c -9,-82 -13,-98 -31,-98 -17,0 -17,-4 1,45 8,22 14,57 15,78 0,20 5,37 11,37 8,0 9,-20 4,-62 z m -305,27 c 0,-8 -22,-38 -48,-66 l -49,-52 -80,-5 c -79,-4 -153,9 -153,29 0,13 14,11 28,-3 8,-8 44,-12 96,-13 100,0 128,15 165,88 22,44 41,54 41,22 z m 1990,4 c 12,-7 10,-8 -7,-9 -28,0 -53,10 -53,22 0,9 33,3 60,-13 z m -1415,-1 c -11,-6 -29,-18 -39,-27 -18,-15 -18,-15 -8,6 12,22 27,31 52,32 10,0 8,-3 -5,-11 z m -1035,-58 c -7,-22 -19,-40 -27,-40 -8,0 -12,3 -10,8 3,4 10,27 17,51 8,32 14,41 22,33 8,-8 8,-22 -2,-52 z m 730,20 c 0,-32 -7,-48 -36,-80 -20,-22 -40,-40 -43,-40 -12,0 -6,63 8,88 17,31 24,22 11,-12 -14,-39 -13,-51 4,-36 8,6 20,36 27,66 14,64 29,71 29,14 z m 1518,13 c 2,-11 -4,-26 -13,-33 -13,-11 -19,-10 -36,9 -12,12 -19,24 -18,25 15,12 46,25 54,22 6,-1 11,-12 13,-23 z m 159,-2 c 24,-3 42,-10 41,-16 -2,-5 -7,-8 -13,-7 -5,2 -35,8 -65,14 -63,13 -64,13 -55,27 4,8 12,8 27,0 11,-6 40,-14 65,-18 z m -1597,-10 c 0,-11 -4,-23 -10,-26 -6,-4 -10,5 -10,19 0,14 5,26 10,26 6,0 10,-9 10,-19 z m -762,-28 c 19,-42 15,-53 -19,-53 -27,0 -30,3 -24,23 4,12 9,30 11,40 7,24 17,21 32,-10 z m 442,-3 c 0,-11 -4,-20 -9,-20 -4,0 -19,-22 -33,-49 -22,-41 -24,-55 -18,-97 5,-27 15,-67 23,-89 26,-68 28,-106 11,-162 -24,-78 -58,-111 -124,-123 -75,-14 -135,7 -188,64 -51,55 -58,89 -38,180 17,74 64,156 91,156 7,0 18,7 25,15 14,17 56,20 65,5 3,-5 1,-10 -4,-10 -6,0 -28,-16 -50,-35 -21,-19 -43,-35 -49,-35 -6,0 -14,-15 -17,-32 -4,-18 -11,-38 -16,-44 -13,-16 27,-115 56,-141 37,-33 119,-32 159,1 39,32 52,105 25,150 -50,87 -47,168 7,205 19,13 42,37 51,53 20,33 33,36 33,8 z m 968,-8 c 13,-20 13,-22 -6,-22 -18,0 -32,18 -32,42 0,15 22,4 38,-20 z m 900,17 c -2,-6 -7,-10 -11,-10 -4,1 -16,1 -27,1 -33,0 -23,17 11,18 16,0 29,-4 27,-9 z m 56,-4 c 48,-20 46,-35 -4,-23 -22,6 -40,16 -40,24 0,17 0,17 44,-1 z m -885,-42 c 26,-39 31,-56 31,-105 0,-35 -8,-78 -19,-106 -11,-26 -22,-56 -26,-67 -5,-16 -8,-17 -16,-5 -5,9 -6,56 -3,111 5,67 3,98 -5,103 -14,9 -15,36 -1,36 19,0 42,-62 38,-105 -4,-54 7,-49 15,6 6,47 -3,79 -31,106 -21,20 -38,73 -23,73 5,0 23,-21 40,-47 z m -1028,-22 c -26,-62 -27,-112 0,-187 33,-96 16,-207 -40,-258 -23,-21 -29,-12 -8,13 23,27 47,104 47,148 0,40 -4,55 -36,130 -21,48 -17,88 17,154 36,72 51,72 20,0 z m 682,48 c -12,-12 -93,-32 -100,-25 -3,2 17,11 44,19 60,19 70,20 56,6 z m -613,-9 c 0,-5 -4,-10 -10,-10 -5,0 -10,5 -10,10 0,6 5,10 10,10 6,0 10,-4 10,-10 z m 633,-22 c -13,-12 -26,-19 -29,-15 -4,4 1,14 12,22 29,22 41,18 17,-7 z m 36,-15 c -15,-17 -63,-43 -80,-43 -6,0 6,12 27,26 21,15 41,30 42,35 2,5 8,6 13,3 6,-3 5,-12 -2,-21 z m 1203,11 c 4,-3 6,-9 4,-13 -7,-10 -96,11 -96,23 0,8 75,1 92,-10 z m -1627,-33 c -3,-12 -11,-21 -16,-21 -6,0 -8,3 -6,8 2,4 7,16 11,26 9,25 20,13 11,-13 z m -282,-13 c -3,-18 -7,-48 -7,-65 -1,-33 -10,-43 -18,-20 -6,15 -2,68 7,96 10,34 26,25 18,-11 z m 932,22 c 3,-5 -1,-10 -9,-10 -9,0 -16,5 -16,10 0,6 4,10 9,10 6,0 13,-4 16,-10 z m 835,0 c 0,-5 -16,-10 -36,-10 -21,0 -33,4 -29,10 3,6 19,10 36,10 16,0 29,-4 29,-10 z m 50,-10 c 0,-5 -4,-10 -10,-10 -5,0 -10,5 -10,10 0,6 5,10 10,10 6,0 10,-4 10,-10 z m 93,-7 c 15,-9 7,-35 -9,-29 -9,3 -27,9 -40,12 -24,6 -30,15 -18,27 7,6 49,0 67,-10 z m -1724,-10 c -1,-14 -60,-56 -67,-48 -4,4 6,18 21,31 28,24 48,31 46,17 z m 401,-3 c 0,-5 -4,-10 -10,-10 -5,0 -10,5 -10,10 0,6 5,10 10,10 6,0 10,-4 10,-10 z m 300,2 c 0,-5 -7,-17 -15,-28 -14,-18 -14,-18 -15,9 0,17 5,27 15,27 8,0 15,-4 15,-8 z m 900,-8 c 71,-10 130,-28 126,-38 -2,-6 -10,-9 -17,-7 -74,21 -134,31 -186,31 -35,0 -63,4 -63,9 0,19 39,20 140,5 z m -1751,-45 c 1,-29 4,-55 6,-60 3,-4 1,-10 -4,-13 -17,-11 -28,73 -15,108 9,24 11,20 13,-35 z m 56,-37 c -9,-9 -14,3 -19,48 l -6,45 15,-44 c 8,-25 13,-47 10,-49 z m 314,50 c -34,-42 -76,-65 -118,-65 -45,0 -81,11 -81,24 0,6 9,5 21,-2 38,-20 104,-2 151,41 47,45 62,46 27,2 z m 519,26 c 18,-18 14,-38 -8,-38 -15,0 -20,7 -20,25 0,27 9,32 28,13 z m -618,-8 c 0,-5 -9,-14 -20,-20 -19,-10 -20,-10 -8,9 13,22 28,28 28,11 z m 1524,-36 c 67,-13 96,-27 84,-39 -3,-4 -28,1 -54,10 -27,8 -76,19 -108,23 -33,4 -61,12 -63,19 -5,13 23,11 141,-13 z m -2054,9 c 0,-4 -12,-19 -26,-34 -21,-22 -28,-42 -33,-92 l -7,-65 33,-22 c 28,-19 37,-21 59,-12 15,8 27,23 31,42 8,41 23,48 23,11 0,-46 -43,-91 -89,-91 -55,0 -101,45 -101,100 0,22 7,57 15,78 19,45 95,114 95,85 z m 1890,-3 c 0,-5 -2,-10 -4,-10 -3,0 -8,5 -11,10 -3,6 -1,10 4,10 6,0 11,-4 11,-10 z m -40,-10 c 0,-5 -6,-10 -14,-10 -8,0 -18,5 -21,10 -3,6 3,10 14,10 12,0 21,-4 21,-10 z m -730,-18 c 33,2 51,-3 45,-12 -6,-10 -90,-8 -101,2 -13,13 7,28 25,19 9,-5 23,-9 31,-9 z m 932,-18 c 37,-9 73,-23 79,-30 14,-17 12,-17 -42,1 -24,8 -71,18 -103,23 -33,4 -61,12 -63,18 -5,14 37,10 129,-12 z m -202,-4 c 0,-5 -4,-10 -10,-10 -5,0 -10,5 -10,10 0,6 5,10 10,10 6,0 10,-4 10,-10 z m -1850,-5 c 0,-4 -7,-19 -15,-35 -11,-21 -12,-36 -5,-55 12,-32 13,-45 1,-45 -14,0 -20,66 -10,105 6,19 14,35 19,35 6,0 10,-2 10,-5 z m 217,-27 c -3,-8 -6,-5 -6,6 -1,11 2,17 5,13 3,-3 4,-12 1,-19 z m 557,-49 c -27,-30 -38,-22 -15,10 12,16 22,37 22,48 1,10 4,5 6,-10 3,-18 -2,-36 -13,-48 z m 289,62 c 41,-1 53,-27 15,-33 -28,-4 -159,19 -169,29 -7,7 23,8 154,4 z m -306,-26 c -4,-8 -11,-15 -17,-15 -7,0 -7,6 0,21 13,23 26,19 17,-6 z m 399,14 c 8,-14 -18,-31 -30,-19 -9,9 0,30 14,30 5,0 12,-5 16,-11 z m 774,-4 c 0,-16 -21,-18 -60,-4 -22,8 -21,8 8,4 17,-2 32,0 32,5 0,6 5,10 10,10 6,0 10,-7 10,-15 z m 168,-12 c 28,-9 52,-20 52,-25 0,-6 -8,-7 -17,-3 -10,4 -55,14 -100,23 -45,9 -80,19 -77,24 6,10 73,1 142,-19 z m -2068,-2 c 0,-6 -4,-13 -10,-16 -5,-3 -10,1 -10,9 0,9 5,16 10,16 6,0 10,-4 10,-9 z m 1885,-21 c 3,-5 1,-10 -4,-10 -6,0 -11,5 -11,10 0,6 2,10 4,10 3,0 8,-4 11,-10 z m 210,-23 c 34,-19 42,-30 54,-75 13,-47 12,-54 -3,-71 -32,-35 -55,-33 -75,8 -24,46 -75,66 -116,45 -24,-12 -26,-12 -36,14 -7,17 -7,33 -1,42 12,20 101,24 152,6 21,-7 42,-11 45,-8 11,11 -34,31 -76,33 -24,2 -54,9 -66,17 -13,8 -29,12 -38,9 -8,-4 -17,-1 -21,5 -12,20 137,-1 181,-25 z m -1685,8 c 16,-19 0,-19 -26,0 -16,12 -16,14 -3,15 9,0 22,-7 29,-15 z m 710,0 c 0,-8 -4,-15 -9,-15 -13,0 -22,16 -14,24 11,11 23,6 23,-9 z m 725,5 c 3,-5 -1,-10 -9,-10 -8,0 -18,5 -21,10 -3,6 1,10 9,10 8,0 18,-4 21,-10 z m -1495,-10 c 0,-5 -5,-10 -11,-10 -5,0 -7,5 -4,10 3,6 8,10 11,10 2,0 4,-4 4,-10 z m 246,-5 c -12,-9 -42,-15 -77,-15 -83,0 -84,18 -2,23 37,2 75,4 83,5 11,1 9,-3 -4,-13 z m -376,-21 c 0,-8 -4,-12 -10,-9 -5,3 -10,10 -10,16 0,5 5,9 10,9 6,0 10,-7 10,-16 z m 1650,0 c 0,-14 -3,-14 -15,-4 -8,7 -15,14 -15,16 0,2 7,4 15,4 8,0 15,-7 15,-16 z m -1424,-25 c 3,-5 2,-9 -1,-9 -9,0 -65,30 -65,35 0,7 60,-16 66,-26 z m 134,-7 c 0,-28 -6,-30 -57,-17 -68,17 -67,35 1,35 48,0 56,-3 56,-18 z m 1235,8 c 24,-7 19,-8 -27,-7 -32,0 -63,4 -70,9 -16,10 56,9 97,-2 z m -1515,-44 c 0,-46 -28,-133 -44,-139 -8,-3 -22,3 -31,13 -15,17 -14,20 13,51 17,20 32,51 37,77 8,48 25,47 25,-2 z m 115,24 c 28,-18 105,-37 132,-32 6,2 15,-3 19,-9 5,-9 -9,-11 -58,-6 -65,6 -128,32 -136,55 -5,17 9,15 43,-8 z m -190,-30 c 3,-5 1,-10 -4,-10 -6,0 -11,5 -11,10 0,6 2,10 4,10 3,0 8,-4 11,-10 z m 1835,-66 c 8,-8 9,-14 4,-14 -22,0 -74,22 -74,31 0,13 51,0 70,-17 z m -210,6 c 0,-5 -7,-10 -16,-10 -8,0 -12,5 -9,10 3,6 10,10 16,10 5,0 9,-4 9,-10 z m 55,0 c 3,-5 -3,-10 -14,-10 -12,0 -21,5 -21,10 0,6 6,10 14,10 8,0 18,-4 21,-10 z m -1585,-76 c -10,-24 -13,-26 -21,-13 -6,11 -3,28 9,50 14,29 17,31 20,13 2,-11 -2,-34 -8,-50 z m 1619,18 c 16,-18 26,-23 29,-14 6,18 22,14 22,-6 0,-10 7,-27 15,-38 8,-10 15,-24 15,-30 0,-17 -80,-35 -102,-23 -26,14 -22,22 6,15 16,-4 26,-1 29,8 12,31 -61,58 -82,32 -18,-21 -81,-22 -81,-1 0,9 12,21 26,27 23,11 24,13 7,19 -11,5 -1,8 29,8 26,1 50,-3 53,-9 3,-5 12,-10 18,-10 20,1 -34,40 -55,40 -10,0 -16,5 -13,10 10,16 58,0 84,-28 z m 31,28 c 0,-5 -2,-10 -4,-10 -3,0 -8,5 -11,10 -3,6 -1,10 4,10 6,0 11,-4 11,-10 z m -172,-38 c 2,-7 -3,-12 -12,-12 -9,0 -16,7 -16,16 0,17 22,14 28,-4 z m -1590,-23 c 3,-19 -29,-31 -49,-19 -10,7 -10,11 1,25 16,19 44,16 48,-6 z m 72,-39 c 0,-20 -5,-30 -15,-30 -10,0 -15,10 -15,30 0,20 5,30 15,30 10,0 15,-10 15,-30 z m 51,-3 c -10,-27 -31,-45 -31,-27 0,13 31,62 37,57 2,-2 -1,-16 -6,-30 z m -231,3 c 0,-5 -6,-10 -14,-10 -8,0 -21,-3 -30,-6 -9,-3 -16,-1 -16,4 0,10 19,18 48,21 6,0 12,-3 12,-9 z m 123,-20 c 3,-13 -3,-24 -19,-35 -31,-20 -34,-19 -34,10 0,13 8,29 18,34 24,15 29,14 35,-9 z m -379,-11 c 38,-30 32,-44 -8,-20 -18,12 -43,21 -55,21 -12,0 -19,4 -16,10 10,17 51,11 79,-11 z m 1881,-10 c 16,-16 -30,-10 -51,7 -18,15 -18,15 11,9 17,-4 34,-11 40,-16 z m -1689,-2 c 11,-11 -19,-8 -36,3 -12,8 -10,9 7,7 12,-2 26,-6 29,-10 z m 39,3 c -3,-5 -10,-10 -16,-10 -5,0 -9,5 -9,10 0,6 7,10 16,10 8,0 12,-4 9,-10 z m 65,0 c 0,-5 -4,-10 -10,-10 -5,0 -10,5 -10,10 0,6 5,10 10,10 6,0 10,-4 10,-10 z m 150,-9 c 0,-5 -7,-14 -15,-21 -12,-10 -15,-10 -15,2 0,8 3,18 7,21 9,10 23,9 23,-2 z m 44,-16 c -4,-8 -13,-15 -21,-15 -13,0 -13,3 -3,15 7,8 16,15 21,15 5,0 6,-7 3,-15 z m 1489,-2 c 34,-17 56,-41 57,-60 0,-15 -71,22 -83,44 -7,11 -12,12 -23,2 -15,-13 -17,-9 -8,15 8,20 17,20 57,-1 z m -2042,-6 c 19,-7 58,-35 86,-62 52,-52 122,-85 177,-85 44,0 89,34 115,85 37,73 79,77 46,5 -66,-147 -190,-158 -340,-33 -33,28 -77,58 -97,66 -33,14 -41,14 -68,1 -37,-19 -55,-44 -75,-105 -19,-57 -37,-73 -70,-65 -33,8 -31,18 8,36 25,12 37,28 55,76 33,85 82,109 163,81 z m 269,-7 c 0,-5 -12,-10 -27,-9 l -28,1 25,8 c 14,4 26,8 28,9 1,1 2,-3 2,-9 z m -26,-80 c 37,0 57,6 83,26 41,31 43,21 4,-17 -45,-42 -89,-47 -148,-15 -27,15 -55,36 -62,48 -11,17 -4,15 30,-10 35,-26 53,-32 93,-32 z m 231,31 c -3,-6 -11,-11 -17,-11 -6,0 -6,6 2,15 14,17 26,13 15,-4 z m 1576,-8 c 18,-9 28,-18 21,-21 -16,-5 -72,17 -72,29 0,13 13,11 51,-8 z m -71,-23 c 0,-13 -30,-13 -50,0 -11,7 -7,10 18,10 17,0 32,-4 32,-10 z m -1910,-20 c 0,-5 -2,-10 -4,-10 -3,0 -8,5 -11,10 -3,6 -1,10 4,10 6,0 11,-4 11,-10 z m -68,-51 c 38,-36 48,-59 26,-59 -7,0 -26,14 -44,31 -30,29 -47,37 -86,38 -26,1 -22,19 5,23 48,7 62,2 99,-33 z m 115,-5 c -10,-10 -37,16 -37,34 0,13 4,12 22,-5 12,-13 19,-25 15,-29 z m 1848,16 c 8,-13 -45,-13 -65,0 -11,7 -6,10 22,10 20,0 40,-4 43,-10 z m -1887,-28 c 8,-12 10,-22 4,-22 -5,0 -17,12 -27,26 -11,17 -13,25 -4,22 7,-2 19,-14 27,-26 z m -103,-22 c 10,-16 -21,-12 -35,5 -7,8 -19,15 -27,15 -8,0 -11,4 -8,10 7,11 59,-12 70,-30 z m 190,-8 c -7,-8 -35,7 -35,18 0,6 7,6 20,-2 10,-7 17,-14 15,-16 z m 1795,18 c 0,-5 -4,-10 -9,-10 -6,0 -13,5 -16,10 -3,6 1,10 9,10 9,0 16,-4 16,-10 z m -620,-42 c 0,-13 -32,-6 -37,9 -3,7 3,9 16,6 12,-3 21,-10 21,-15 z m -1473,6 c -3,-3 -12,-4 -19,-1 -8,3 -5,6 6,6 11,1 17,-2 13,-5 z m 1543,-4 c 0,-5 -2,-10 -4,-10 -3,0 -8,5 -11,10 -3,6 -1,10 4,10 6,0 11,-4 11,-10 z m 70,-32 c 0,-13 -43,-6 -47,8 -2,7 6,10 22,7 14,-3 25,-10 25,-15 z m 190,13 c 0,-14 -56,-33 -82,-28 -22,4 -22,4 3,6 15,0 32,8 39,16 14,16 40,20 40,6 z m -275,-22 c 5,-6 3,-9 -7,-9 -24,0 -48,11 -48,22 0,10 39,1 55,-13 z m 135,-19 c 12,-8 11,-10 -7,-10 -13,0 -23,5 -23,10 0,13 11,13 30,0 z m -43,-27 c -9,-8 -48,8 -42,18 4,5 14,5 26,-2 12,-6 18,-13 16,-16 z m 183,17 c 0,-5 -7,-10 -15,-10 -8,0 -15,5 -15,10 0,6 7,10 15,10 8,0 15,-4 15,-10 z m -255,-21 c 4,-6 5,-13 2,-16 -8,-7 -47,7 -47,18 0,13 37,11 45,-2 z m 312,5 c -3,-3 -12,-4 -19,-1 -8,3 -5,6 6,6 11,1 17,-2 13,-5 z m -304,-61 c -13,-2 -33,-2 -45,0 -13,2 -3,4 22,4 25,0 35,-2 23,-4 z m 7,-43 c 0,-5 -10,-10 -22,-10 -19,0 -20,2 -8,10 19,13 30,13 30,0 z m -50,-41 c 0,-12 -37,-12 -44,0 -3,4 -3,11 0,14 8,7 44,-4 44,-14 z m 50,-4 c 0,-8 -7,-15 -16,-15 -14,0 -14,3 -4,15 7,8 14,15 16,15 2,0 4,-7 4,-15 z m -50,-39 c 0,-2 -7,-6 -15,-10 -8,-3 -15,-1 -15,4 0,6 7,10 15,10 8,0 15,-2 15,-4 z m 24,-36 c -15,-30 -25,-36 -37,-23 -7,6 31,50 45,52 3,1 0,-12 -8,-29 z m -64,0 c 0,-12 -34,-12 -70,0 -20,7 -16,8 23,9 26,1 47,-3 47,-9 z m -30,-50 c 0,-5 -7,-10 -15,-10 -8,0 -15,5 -15,10 0,6 7,10 15,10 8,0 15,-4 15,-10 z m 55,-10 c -3,-5 -10,-10 -16,-10 -5,0 -9,5 -9,10 0,6 7,10 16,10 8,0 12,-4 9,-10 z m -35,-30 c 0,-5 -12,-10 -26,-10 -14,0 -23,4 -19,10 3,6 15,10 26,10 10,0 19,-4 19,-10 z m -46,-40 c -6,-6 -21,-6 -39,-1 -30,9 -30,9 10,10 25,1 36,-2 29,-9 z m -41,-41 c -7,-7 -19,-8 -30,-4 -16,7 -15,9 7,15 30,8 38,4 23,-11 z m -174,-54 c 2,-3 -14,-5 -37,-5 -35,0 -42,3 -42,20 0,19 1,20 37,5 20,-9 39,-18 42,-20 z m -52,-37 c 64,-26 69,-43 11,-34 -41,7 -78,29 -78,48 0,12 9,10 67,-14 z m 93,12 c 0,-5 -7,-10 -16,-10 -8,0 -12,5 -9,10 3,6 10,10 16,10 5,0 9,-4 9,-10 z m 60,3 c 0,-22 -42,-73 -59,-73 -33,0 -33,17 0,29 17,6 28,15 24,21 -3,5 -3,15 0,20 7,12 35,14 35,3 z m -191,-54 c 17,-6 31,-15 31,-20 0,-16 -37,-10 -61,11 -27,22 -17,25 30,9 z m -25,-44 c 11,-8 30,-15 43,-15 14,0 23,-6 23,-15 0,-10 -10,-15 -31,-15 -41,0 -69,16 -69,40 0,24 8,25 34,5 z m 146,0 c -3,-5 -14,-9 -25,-9 -11,1 -30,2 -43,3 -14,1 -20,5 -17,12 9,13 92,8 85,-6 z m -295,-25 c 3,-6 -1,-7 -9,-4 -18,7 -21,14 -7,14 6,0 13,-4 16,-10 z m 289,-24 c -4,-11 -54,-30 -54,-20 0,18 17,34 36,34 16,0 22,-4 18,-14 z m -150,-7 c 28,-13 25,-29 -5,-29 -10,0 -19,2 -19,4 0,2 -3,11 -6,20 -7,19 -3,20 30,5 z m -111,-25 c 16,-14 26,-28 23,-31 -7,-7 -66,36 -66,48 0,16 14,10 43,-17 z m 187,-19 c -14,-16 -40,-20 -40,-6 0,10 17,19 39,20 11,1 11,-2 1,-14 z m 60,-11 c 0,-8 -9,-14 -20,-14 -22,0 -26,10 -8,28 13,13 28,7 28,-14 z m -180,-10 c 0,-8 -4,-12 -10,-9 -5,3 -10,13 -10,21 0,8 5,12 10,9 6,-3 10,-13 10,-21 z m 78,-4 c 7,0 10,-4 7,-10 -10,-16 -52,-12 -59,6 -5,13 -2,15 16,10 13,-3 29,-6 36,-6 z m -111,-23 c 7,-5 10,-13 7,-18 -7,-12 -44,13 -44,29 0,13 11,10 37,-11 z m 103,-27 c 11,0 20,-4 20,-9 0,-4 15,-13 33,-19 31,-10 31,-10 5,-11 -15,-1 -30,4 -33,9 -4,6 -10,8 -15,5 -10,-6 -73,15 -82,29 -13,20 4,27 28,12 13,-9 32,-16 44,-16 z m 55,20 c -3,-5 -13,-10 -21,-10 -8,0 -14,5 -14,10 0,6 9,10 21,10 11,0 17,-4 14,-10 z m 45,-10 c 0,-5 -4,-10 -10,-10 -5,0 -10,5 -10,10 0,6 5,10 10,10 6,0 10,-4 10,-10 z"
         inkscape:connector-curvature="0" />
      <path
         id="path14"
         d="m 286,3266 c 6,-15 60,-27 82,-18 8,3 -3,11 -25,18 -49,17 -64,17 -57,0 z"
         inkscape:connector-curvature="0" />
      <path
         id="path16"
         d="m 2600,2704 c 0,-14 34,-44 88,-79 33,-22 53,-28 90,-26 61,2 81,21 20,19 -62,-1 -116,20 -160,61 -21,19 -38,30 -38,25 z"
         inkscape:connector-curvature="0" />
      <path
         id="path18"
         d="m 1840,2531 c 0,-5 7,-12 16,-15 24,-9 28,-7 14,9 -14,17 -30,20 -30,6 z"
         inkscape:connector-curvature="0" />
      <path
         id="path20"
         d="m 995,2574 c -22,-8 -69,-22 -105,-31 -84,-20 -102,-37 -35,-31 49,4 189,51 210,69 14,14 -25,9 -70,-7 z"
         inkscape:connector-curvature="0" />
      <path
         id="path22"
         d="m 1480,2359 c 0,-16 37,-56 44,-48 2,2 -7,18 -20,34 -16,20 -24,25 -24,14 z"
         inkscape:connector-curvature="0" />
      <path
         id="path24"
         d="m 1550,2345 c 14,-8 34,-14 45,-14 15,1 13,4 -10,14 -40,19 -67,18 -35,0 z"
         inkscape:connector-curvature="0" />
      <path
         id="path26"
         d="m 1190,2001 c 0,-31 7,-49 31,-76 17,-19 38,-35 48,-35 12,1 10,6 -10,23 -33,27 -49,58 -49,91 0,14 -4,28 -10,31 -6,4 -10,-10 -10,-34 z"
         inkscape:connector-curvature="0" />
      <path
         id="path28"
         d="m 1731,2304 c 0,-11 3,-14 6,-6 3,7 2,16 -1,19 -3,4 -6,-2 -5,-13 z"
         inkscape:connector-curvature="0" />
      <path
         id="path30"
         d="m 3510,1520 c 70,-24 81,-24 51,0 -15,13 -38,20 -65,20 l -41,-1 z"
         inkscape:connector-curvature="0" />
      <path
         id="path32"
         d="m 920,3141 c 0,-5 7,-15 17,-22 15,-13 15,-12 4,9 -12,23 -21,28 -21,13 z"
         inkscape:connector-curvature="0" />
      <path
         id="path34"
         d="m 1206,2845 c 4,-8 10,-15 15,-15 5,0 9,7 9,15 0,8 -7,15 -15,15 -9,0 -12,-6 -9,-15 z"
         inkscape:connector-curvature="0" />
      <path
         id="path36"
         d="m 3170,2520 c 0,-6 27,-10 60,-10 33,0 60,4 60,10 0,6 -27,10 -60,10 -33,0 -60,-4 -60,-10 z"
         inkscape:connector-curvature="0" />
      <path
         id="path38"
         d="m 2670,2201 c 0,-35 -34,-79 -73,-96 -16,-7 -26,-15 -21,-18 22,-13 75,23 94,65 22,47 25,78 10,78 -5,0 -10,-13 -10,-29 z"
         inkscape:connector-curvature="0" />
      <path
         id="path40"
         d="m 3090,2061 c 0,-5 20,-16 45,-24 53,-19 60,-8 10,16 -40,19 -55,21 -55,8 z"
         inkscape:connector-curvature="0" />
      <path
         id="path42"
         d="m 3070,1880 c -11,-7 -6,-10 21,-10 20,0 52,-3 70,-6 24,-4 29,-2 19,4 -24,15 -94,23 -110,12 z"
         inkscape:connector-curvature="0" />
      <path
         id="path44"
         d="m 3060,1841 c -11,-8 -4,-11 30,-11 25,0 70,-3 100,-6 38,-4 50,-2 40,5 -23,14 -152,24 -170,12 z"
         inkscape:connector-curvature="0" />
      <path
         id="path46"
         d="m 2292,1610 c 2,-8 39,-22 84,-31 90,-20 114,-22 114,-11 0,5 -35,16 -77,25 -43,9 -89,19 -102,23 -17,5 -23,4 -19,-6 z"
         inkscape:connector-curvature="0" />
      <path
         id="path48"
         d="m 2325,1555 c 26,-21 110,-45 154,-44 30,0 23,4 -44,25 -44,14 -91,27 -105,30 -24,5 -24,5 -5,-11 z"
         inkscape:connector-curvature="0" />
      <path
         id="path50"
         d="m 2370,1499 c 0,-15 90,-52 130,-54 19,0 41,-4 48,-8 6,-5 12,-4 12,1 0,11 -27,24 -106,51 -69,24 -84,26 -84,10 z"
         inkscape:connector-curvature="0" />
      <path
         id="path52"
         d="m 2178,1227 c 48,-49 52,-60 16,-47 -34,13 -34,13 -30,-12 2,-14 9,-22 18,-20 14,2 56,-46 43,-49 -3,-1 -9,-2 -14,-3 -22,-3 -20,-16 9,-59 36,-54 38,-64 5,-43 -13,9 -27,16 -30,16 -11,0 -4,-23 16,-52 23,-32 19,-49 -6,-28 -9,7 -18,10 -21,7 -9,-9 27,-77 40,-77 12,0 56,125 56,160 0,10 -7,25 -15,34 -13,12 -13,19 -3,35 9,15 9,23 -1,35 -11,13 -11,16 3,16 9,0 16,5 16,10 0,6 -4,10 -10,10 -5,0 -10,7 -10,15 0,9 9,15 22,15 15,0 1,12 -45,40 -90,54 -114,53 -59,-3 z"
         inkscape:connector-curvature="0" />
      <path
         id="path54"
         d="m 3100,1210 c 0,-10 68,-25 77,-16 6,6 -40,26 -63,26 -8,0 -14,-4 -14,-10 z"
         inkscape:connector-curvature="0" />
      <path
         id="path56"
         d="m 3040,962 c 0,-9 50,-35 56,-29 2,2 -10,11 -26,21 -17,9 -30,13 -30,8 z"
         inkscape:connector-curvature="0" />
      <path
         id="path58"
         d="m 1260,930 c 0,-5 5,-10 10,-10 6,0 10,5 10,10 0,6 -4,10 -10,10 -5,0 -10,-4 -10,-10 z"
         inkscape:connector-curvature="0" />
      <path
         id="path60"
         d="m 2340,910 c 0,-5 5,-10 10,-10 6,0 10,5 10,10 0,6 -4,10 -10,10 -5,0 -10,-4 -10,-10 z"
         inkscape:connector-curvature="0" />
      <path
         id="path62"
         d="m 2390,892 c 0,-29 87,-85 123,-80 18,3 12,9 -29,30 -27,15 -56,34 -63,42 -14,17 -31,21 -31,8 z"
         inkscape:connector-curvature="0" />
      <path
         id="path64"
         d="m 2177,835 c 20,-27 29,-30 38,-15 9,15 -14,40 -37,40 -18,0 -18,-1 -1,-25 z"
         inkscape:connector-curvature="0" />
      <path
         id="path66"
         d="m 2112,828 c 3,-7 12,-14 21,-16 12,-2 15,1 11,12 -7,19 -38,22 -32,4 z"
         inkscape:connector-curvature="0" />
      <path
         id="path68"
         d="m 2117,784 c -12,-13 -8,-20 19,-33 31,-14 43,-7 28,17 -12,19 -36,27 -47,16 z"
         inkscape:connector-curvature="0" />
      <path
         id="path70"
         d="m 1577,711 c -17,-6 -16,-8 8,-19 32,-15 45,-8 24,12 -8,8 -22,11 -32,7 z"
         inkscape:connector-curvature="0" />
      <path
         id="path72"
         d="m 2100,704 c 0,-10 44,-43 58,-44 6,0 12,11 12,25 0,22 -4,25 -35,25 -19,0 -35,-3 -35,-6 z"
         inkscape:connector-curvature="0" />
      <path
         id="path74"
         d="m 2180,645 c 0,-11 55,-57 78,-66 28,-11 72,-12 72,-1 0,4 -15,13 -32,20 -18,8 -49,22 -69,33 -38,20 -49,23 -49,14 z"
         inkscape:connector-curvature="0" />
      <path
         id="path76"
         d="m 2090,632 c 0,-4 16,-14 35,-21 19,-7 35,-16 35,-20 0,-4 11,-13 25,-19 16,-7 25,-8 25,-2 0,6 -11,15 -24,21 -13,6 -27,20 -29,30 -4,13 -14,19 -36,19 -17,0 -31,-4 -31,-8 z"
         inkscape:connector-curvature="0" />
    </g>
    <text
       xml:space="preserve"
       style="font-style:normal;font-weight:normal;font-size:10.58333302px;line-height:1.25;font-family:sans-serif;letter-spacing:0px;word-spacing:0px;fill:#000000;fill-opacity:1;stroke:none;stroke-width:0.26458332"
       x="120.21323"
       y="27.618654"
       id="text130"><tspan
         sodipodi:role="line"
         id="tspan128"
         x="120.21323"
         y="27.618654"
         style="font-style:normal;font-variant:normal;font-weight:bold;font-stretch:normal;font-size:22.57777786px;font-family:FreeSans;-inkscape-font-specification:FreeSans;fill:#000000;fill-opacity:1;stroke-width:0.26458332">e</tspan></text>
    <flowRoot
       xml:space="preserve"
       id="flowRoot120"
       style="font-style:normal;font-weight:normal;font-size:40px;line-height:1.25;font-family:sans-serif;letter-spacing:0px;word-spacing:0px;fill:#000000;fill-opacity:1;stroke:none"
       transform="matrix(0.26458333,0,0,0.26458333,2.9399648,2.6726953)"><flowRegion
         id="flowRegion122"><rect
           id="rect124"
           width="775.79718"
           height="180.81731"
           x="14.142136"
           y="12.362038" /></flowRegion><flowPara
         id="flowPara126"
         style="font-style:normal;font-variant:normal;font-weight:bold;font-stretch:normal;font-size:85.33333588px;font-family:FreeSans;-inkscape-font-specification:FreeSans">Hyper<flowSpan
   style="fill:#c85a19;fill-opacity:1"
   id="flowSpan4673">medea</flowSpan></flowPara></flowRoot>  </g>
</svg>
